/* XPM */
static char *__floor[] = {
/* columns rows colors chars-per-pixel */
"64 64 44 1 ",
"  c #2B2925",
". c #2A2824",
"X c #282622",
"o c #21201C",
"O c #252320",
"+ c #1C1B18",
"@ c #1A1916",
"# c #292824",
"$ c #201F1C",
"% c #21201D",
"& c #1A1A17",
"* c #1B1A17",
"= c #282623",
"- c #1D1C19",
"; c #292724",
": c #22201D",
"> c #262420",
", c #24231F",
"< c #2C2925",
"1 c #2A2825",
"2 c #292723",
"3 c #262521",
"4 c #272522",
"5 c #2A2925",
"6 c #2B2824",
"7 c #1F1E1B",
"8 c #2B2924",
"9 c #24221F",
"0 c #282723",
"q c #262421",
"w c #1F1E1A",
"e c #1E1C19",
"r c #2B2825",
"t c #23221E",
"y c #201F1B",
"u c #191916",
"i c #1E1D1A",
"p c #1D1C18",
"a c #201E1B",
"s c #272521",
"d c #1A1917",
"f c #23211E",
"g c #22211D",
"h c white",
/* pixels */
"                                                                ",
"                                              ..                ",
"                                             ....               ",
"    ...                                     .   .               ",
"   .  ..                                   . XoO ..             ",
"  .  .  .                                 . X+@+# .             ",
" .  $+%. .                               .. $&++X .             ",
" . .+**= .                               .. o**-; .             ",
" .. o*: ..                                . .>,X .         ...  ",
"  . .X  .                                  .  < .         .  .  ",
"   .  1.                                    ....         .  . . ",
"    ...                                                 . .$+X .",
"                                                        . 2**X .",
"               ...                                      .. 34 . ",
"              ..  .                                      5.  .  ",
"             .  X; .                                       ..   ",
"            . 6:*78 .                                           ",
"           .. 9@*+0 .                                           ",
"           .. 7@**= .                                           ",
"           .. qwe:  .                                           ",
"             .  .  .                                            ",
"              .r ..                                ..           ",
"              ....                                ....          ",
"                                                 .   .          ",
"                                                . XoO ..        ",
"                                               . X+@+# .        ",
"                                              .. $&++X .        ",
"                                              .. o**-; .        ",
"                                               . .>,X .         ",
"                                                .  < .          ",
"                                                 ....           ",
"                                                                ",
"                                                                ",
"                                                                ",
"                               ...                              ",
"                              ..  .                             ",
"                             .  2. .                            ",
"                            .. 9*t ..                           ",
"                            .. yu9 ..                           ",
"                             . =q  .                            ",
"                              .  ..                             ",
"                             . ...                              ",
"                                                                ",
"                                                                ",
"                                                                ",
"                                                                ",
"                                                                ",
"                                                ...             ",
"                                               .  ..            ",
"                                              .  .  .           ",
"                                             .  $+%. .          ",
"                                             . .+**= .          ",
"   ..             ...                        .. o*: ..          ",
"  .  .           ......                       . .X  .           ",
" . .; .         .      .                       .  1.            ",
". 2ip2 .       .5 9aoO. .                       ...             ",
". sd-. .       . 0***@t ..                                      ",
". .q2 .        . .-++@f<..                                      ",
" .   .         .. g@d-2 .                                       ",
"  ...           . .::2 .                                        ",
"                 .    . 5                                       ",
"                1 .... 1                                        ",
"                   ..                                           ",
"                                                                "
};
