/* XPM */
static char *__wall[] = {
/* columns rows colors chars-per-pixel */
"64 64 147 2 ",
"   c #0F0915",
".  c #110A16",
"X  c #160D1B",
"o  c #180F1E",
"O  c #19101F",
"+  c #1B1121",
"@  c #27182F",
"#  c #271A30",
"$  c #2C1D36",
"%  c #2F1F38",
"&  c #301F39",
"*  c #2D2137",
"=  c #2F223A",
"-  c #33233C",
";  c #362640",
":  c #382741",
">  c #372A44",
",  c #392C46",
"<  c #3B2E48",
"1  c #3E314A",
"2  c #413147",
"3  c #43334D",
"4  c #42334D",
"5  c #43334E",
"6  c #41324C",
"7  c #43344E",
"8  c #45344C",
"9  c #45344D",
"0  c #44344E",
"q  c #44344F",
"w  c #45354F",
"e  c #47364E",
"r  c #47364F",
"t  c #47374F",
"y  c #42344C",
"u  c #48364F",
"i  c #48374F",
"p  c #47384E",
"a  c #48384F",
"s  c #453550",
"d  c #463550",
"f  c #463551",
"g  c #473651",
"h  c #463652",
"j  c #443650",
"k  c #483750",
"l  c #483751",
"z  c #463952",
"x  c #483850",
"c  c #493851",
"v  c #483951",
"b  c #4A3952",
"n  c #4A3953",
"m  c #4A3A53",
"M  c #4E3C53",
"N  c #4B3C54",
"B  c #4C3C54",
"V  c #4D3C54",
"C  c #4D3C55",
"Z  c #4E3D57",
"A  c #4E3E56",
"S  c #4F3F56",
"D  c #4E3E57",
"F  c #4A3D55",
"G  c #4C3F59",
"H  c #503E56",
"J  c #4C4057",
"K  c #4E4259",
"L  c #514156",
"P  c #514257",
"I  c #524256",
"U  c #534356",
"Y  c #524257",
"T  c #534257",
"R  c #524357",
"E  c #534357",
"W  c #544357",
"Q  c #534457",
"!  c #514058",
"~  c #514158",
"^  c #514159",
"/  c #524058",
"(  c #534358",
")  c #52425A",
"_  c #54435A",
"`  c #55435A",
"'  c #54435B",
"]  c #534458",
"[  c #544458",
"{  c #544559",
"}  c #554559",
"|  c #55455A",
" . c #55445B",
".. c #56445B",
"X. c #57475B",
"o. c #55445C",
"O. c #56455C",
"+. c #53455B",
"@. c #58475E",
"#. c #58475D",
"$. c #57485E",
"%. c #58485D",
"&. c #59485D",
"*. c #58495E",
"=. c #59495E",
"-. c #59485F",
";. c #58495F",
":. c #59495F",
">. c #5A495F",
",. c #594A5F",
"<. c #5A4A5F",
"1. c #58485E",
"2. c #574960",
"3. c #5A4960",
"4. c #5A4A60",
"5. c #5B4A60",
"6. c #5B4A61",
"7. c #5B4B61",
"8. c #5C4A60",
"9. c #5C4B60",
"0. c #5C4A61",
"q. c #5C4B61",
"w. c #5D4B61",
"e. c #5C4B62",
"r. c #5D4B62",
"t. c #5C4C61",
"y. c #5D4C61",
"u. c #5C4C62",
"i. c #5D4C62",
"p. c #5D4D62",
"a. c #5E4C62",
"s. c #5E4D62",
"d. c #5F4D62",
"f. c #5E4D63",
"g. c #5F4D63",
"h. c #5F4E63",
"j. c #5D4D64",
"k. c #5E4D64",
"l. c #5F4E64",
"z. c #5B4B62",
"x. c #604E64",
"c. c #614F65",
"v. c #615065",
"b. c #615066",
"n. c #625066",
"m. c #625167",
"M. c #635168",
/* pixels */
"  o o o o o o o o o o o o o o o o o o o o o o o o o o o o o o o o o o o o o o o o o o o o o o o o o o o o o o o o o o o o o o . ",
"  o o o X X X X X X X X o o X X o X X X X X X X X X X X X X X X X X X X X X X X X X X X X X X o o o X X X X X X X X X X o o o . ",
"  o o + X.W E E E E E E 8 - - - < E E E E E E E E E E E E E E E Q E / E ) E E E E E E E E X.2 - & & : X.X.X.X.X.X.X.X.<.X o o . ",
"  o o + n.i.i.i.i.i.e.i.M - - - e 3.e.e.i.i.i.e.i.i.i.i.i.i.e.e.i.i.i.i.i.i.i.i.i.i.i.i.i.i.u - - - 6 c.i.i.i.i.i.i.i.M.. o o . ",
"  o o + n.i.i.i.i.i.e.i.M - - - e 3.e.e.e.e.e.e.e.e.i.i.e.e.e.e.e.i.i.i.e.e.i.i.i.i.i.i.i.i.u - - - 6 c.i.i.i.i.i.i.i.n.X o o . ",
"  o o + n.i.e.i.i.i.e.i.A - - - 8 <.e.e.e.e.e.e.e.e.e.e.e.e.e.e.e.e.e.e.e.e.e.i.i.i.i.i.i.i.u - - - 6 c.i.i.i.i.i.i.i.n.X o o . ",
"  o o + o./ / / @.e.e.e.A : - - < A A A _ 3.e.e.<.e.e.e.e.e.e.e.e.<.x l l l @.e.e.e.e.e.e.i.u ; - - 6 k.i.i.i._ x x x A X o o . ",
". o o + d 6 6 6 / e.e.e.A : - - : 6 6 6 A <.3.3.e.e.e.e.e.e.3.e.3.o.< , , , _ e.e.e.e.e.e.i.e ; - - 6 i.e.e.i.H 6 6 6 d X o o . ",
". o o O d 6 6 6 / 3.3.3.A ; - - : 6 e 6 N <.<.3.<.3.3.3.3.3.3.3.3.o.< < < < _ e.e.e.e.e.e.e.e ; - - 6 i.e.e.i.H 6 6 6 d X o o . ",
". o o + d 6 6 7 / i.i.i.A : - - : e e e A e.i.i.i.i.i.i.i.i.i.i.i.@.< < < < _ e.i.i.i.i.i.i.e - - ; 6 c.i.i.c./ 6 6 6 d X o o . ",
". o o o : - - - ; - - - - - - - - - - - - - - - - - - - - - - - - - - ; ; - - - - - - - - - - - - ; - - - - - ; - - : : X o o . ",
". o o o ; - - - - - - - - - - - - - - - - - - - - - - - - - - - - - - - - - - - - - - - - - - - - - - - - - - - - - - : o o o . ",
". o o O - % % % - & - - - - & - - - - - - - - & - & & & % & & % & & & - - - - - - - - - - - - - - - - - - - - - - - - : o o o . ",
". o o o - % % % % % % % % % % & & & % % % % % % & % % % % % % % % % % % % % - - - - - - & - - - - - - - - - - - - - - - X o o . ",
". o o O e 6 6 6 6 6 6 6 6 6 6 6 6 6 6 6 6 6 6 6 6 6 6 6 6 : % % % - 6 8 8 8 : - - - 6 8 6 8 8 8 8 8 8 8 8 6 6 8 8 8 e x X o o . ",
". o o + k.3.<.<.<.<.<.<.<.<.<.<.<.<.<.<.<.<.<.<.<.<.<.<.<.x % % % - <.<.<.3.6 , , , X.<.<.<.<.<.<.<.3.<.<.<.<.<.<.<.<.k.X o o . ",
"  o o + i.<.<.<.<.<.<.<.<.%.%.o.o.o.%.%.%.%.<.%.<.<.<.<.%.a % % % - <.<.<.<.6 , , , _ <.<.<.<.<.<.<.<.<.<.<.<.<.<.<.<.i.X o o . ",
". o o O i.<.<.<.<.<.%.%.o.o.o.o.o.o.o.o.%.%.o.%.%.<.<.<.%.e % = % - <.<.<.<.6 , , < _ <.<.<.<.<.<.<.<.<.<.<.<.<.<.<.<.3.X o o . ",
". o o o e.<.<.<.<.o.o.o.%.<.<.<.<.<.<.<.<.o.o.%.o.o.%.o.o.p % % % - <.<.<.<.6 , , , / @.<.@.%.<.<.<.<.<.<.<.<.<.<.<.<.e.X o o . ",
". o o O e.<.%.<.o.o.o.o.J 6 6 6 1 6 6 6 1 / o.o.o.o.o.o.o.e % % % - <.<.<.<.) / / / o.@.@.o.%.%.%.<.o.o.o.o.%.A 7 7 7 d X o o . ",
". o o O i.%.%.o.o.o.o.o.N , , , , < < < , K o.o.o.o.o.o.o.e % % % - <.%.<.<.<.<.<.@.o.@.@.o.%.o.o.o.o.o.o.o.o.x < < < 1 X o o . ",
". o o O z.%.%.o.o.o.o.o.N , , , , < < < , K o.o.o.o.o.o.o.e % % % - %.%.<.<.<.<.<.<.o.o.o.o.%.%.o.o.o.o.o.o.o.x < < < < X o o . ",
". o o O z.%.%.%.o.o.o.o.m , , , , , , , , K o.o.%.%.o.o.o.e % % % - <.o.<.o.<.@.<.<.o.o.o.%.<.<.o.o.o.o.o.o.o.x , < < < X o o . ",
". o o O 3.) ) ) ) / / / x , , , , < < 1 < A / / / ) / / / 7 % % % - ) / / / / / / / / / ) ) ) / ) / / / / / / e , < < < X o o . ",
"  o o o d 6 6 1 1 1 1 1 1 1 1 1 7 N N N N 1 < < 1 1 < < 1 : % % % - 1 1 1 1 < < < < < < < , , , < < < < < < < , , , , < X o o . ",
". o o o d 6 1 1 1 1 1 1 1 1 1 1 7 N N N J 1 < < 1 1 < < < > % % % - 1 1 1 < < < < < , < , , , , , , , , , , , , , , , < X o o . ",
"  o o o j 6 1 1 1 1 1 1 1 1 1 1 7 N N N N 1 < < 1 1 1 1 1 > % % % = 1 1 < < 1 < < < < < < < , , < < , < < < < < , , , < X o o . ",
". o o o 6 1 1 1 1 < < < < < < < 1 z m m N 1 , , < < < < < > % % % = < < < < < < < < < , , , , , , , , , , , , , , , , < X o o . ",
"  o o o - = % % = % % % % % % % = - - - % % % % % % % % % % % $ $ $ % % % % % % % % % % % % % % % % % % % % % % % % % % o o o . ",
"  o o o % % % % % $ % % $ $ $ $ $ $ $ $ $ $ $ $ $ $ $ $ $ $ $ $ $ $ $ $ $ $ $ $ $ $ $ $ $ $ $ $ $ $ $ $ $ $ $ $ % % % % o o o . ",
"  o o o & % % % % $ $ $ % $ $ $ $ $ $ $ $ $ $ $ $ $ $ $ $ $ $ $ $ $ $ $ $ $ $ $ $ $ $ $ $ $ $ $ $ $ $ $ $ $ $ $ % % % % o o o . ",
"  o o o & % % % $ $ $ $ % $ $ $ $ $ $ $ $ $ $ $ $ $ $ $ $ $ $ $ $ $ $ $ $ $ $ $ $ $ $ $ $ $ $ $ $ $ $ $ $ $ $ $ $ $ $ % o o o . ",
"  o o o e y 6 6 6 6 1 6 > % % % - < 1 1 1 1 1 1 1 1 1 1 1 1 1 1 1 1 1 6 6 1 1 1 1 1 : ; ; > - % % % - 1 < < < < < < < 1 X o o . ",
"  o o O %.) ) ) ) ) ) ) 7 % % % : A K K K K K K K K K K K K K K K K / / ) K K K / / z 7 7 7 , % % % ; K K J K K K K K ) X o o . ",
"  o o o %.) ) ) ) ) ) ) y % % % : A K K K K K K K K K K K K K K K K K / K K / K K / z 7 7 7 , - % % - K K K K K K K K ) X o o . ",
"  o o o %.) ) ) K ) / / y % % % : J K K K K K K K K / K K K K K K K K K K K K K K / z 7 7 7 , % % % ; K K K K K K K K +.X o o . ",
"  o o o %.) ) ) / / / / 7 % % % : A K K K K K K K K K / K K N N N N K K K K J A J J z 7 7 7 , & - - ; K K J J N N N N G X o o . ",
"  o o o 2.) ) / / / / / 7 % % % : A K K K K K K K K K K K N > , > < K K K K 7 1 1 1 1 7 1 7 , - - - ; K K J N 7 1 1 1 1 X o o . ",
". o o o %.) ) ) ) ) / / 7 % % % : A K K K K K K K K K K K N , < , 1 K K K K j 1 1 1 1 1 1 1 , = - - > K J N N 7 1 1 1 6 X o o . ",
"  o o o 2.) ) / K K / / 7 % % % : A K K K K K K K K K K K N < < , 1 K K K K 7 1 1 1 1 1 1 1 , - - = ; K N N N 7 1 1 1 6 X o o . ",
". o o o ) J J A J J N N 1 % % % ; z N N N N N N N N N N N z < < , 1 m N N N 7 1 1 1 1 1 1 1 , & - - - N z z z 1 1 1 1 6 X o o . ",
"  o o o 6 1 1 1 1 1 1 1 > % % % - > > > > > > > > > > > > > , , , > > > > > , , , , , , , , ; - % % - , , , > > ; > > > X o o . ",
". o o o 7 1 1 1 1 1 1 1 > % % % - , , , , , , , , , , , , , , , > > , , , , , , , , , < , , ; = = = - , , , , > > > > , o o o . ",
"  o o o 7 1 1 1 1 1 1 1 , % % % - , , , , , , , , , , , , , , , > > , , , , , , , , , , , , ; % = % - , , , , > > > > > X o o . ",
"  o o o 1 < < < < < , , > % % % - > > > > > > > > > > > > > > > > > > > > > > : > > > > > > - % = % - , > , , > ; ; ; > X o o . ",
"  o o o - - = = = = - - % % % % % % % % * % % * = % = = = = = = = = = = = = = = = = = = = - % % % % % % % = = = % % % - o o o . ",
"  o o o & % % % % % % % % % % % % % % % % % % % % % % % % % % % % % % % % % % % % % % % % % % % % % % % % % % % % % % % o o o . ",
". o o o & % % % % % % % % % % % % % % % % % % % % % % % % % % % % % % % % % % % % % % % % % % % % % % % $ $ % % % % % % X o o . ",
". o o o % % % % % % % % % % % % $ % $ % % % $ $ % % % % % % % % % % % % % % % $ $ $ $ % $ $ $ $ % % $ $ $ $ $ $ % % % % X o o . ",
". o o o < , , : , , , : , , : : : : : : : : : : : - - = - - % % % % - - - - > > > > > : : > > > : > - > ; > > > > > : , o o o . ",
"  o o o 2.+.) ) ) ) ) ) +.) ) ) ) ) ) ) ) ) ) ) K 1 1 < < , % % % - 7 7 7 7 K ) ) ) ) ) ) ) ) ) ) ) ) ) ) ) ) ) K K K +.X o o . ",
"  o o o 3.) ) ) ) ) ) ) ) ) ) ) ) ) ) ) ) ) ) ) ) 1 < < < , % % % - 7 7 7 7 K ) ) ) ) ) ) ) ) ) ) ) ) K ) K K K K K K +.X o o . ",
"  O O o 2.) ) ) ) ) ) ) ) ) ) ) ) ) ) ) ) ) ) ) ) 1 < , , , % % % - 7 7 7 7 K ) ) ) ) ) ) ) K / ) / K K K K K K K K K +.X o o . ",
"  o o o 2.) ) ) ) ) ) ) ) ) ) ) ) ) ) ) ) ) ) ) ) 1 , , , > % % % - 7 7 7 7 J ) ) ) ) ) ) ) K K ) / K K K K K K K K K +.X o o . ",
"  o O o %.) ) ) ) ) ) ) N < , , 7 ) ) ) ) ) ) ) ) J A A A p % % % - 7 7 1 1 J ) ) ) ) ) ) / J 7 1 1 1 < < < , w K K K +.X o o . ",
"  o O o %.) ) ) ) ) ) ) x > ; ; 1 K ) ) ) ) ) ) ) ) ) ) / m % % % - 1 1 1 1 J ) ) ) ) K K K N 1 , > > > > > ; 1 K K K +.X o o . ",
"  o o o %.) ) ) ) / K ) z ; ; ; 1 K ) ) ) K K ) ) ) ) ) K x % % % - 1 1 1 1 N K K K K K K K N 1 , > > > > > ; 1 A A A ) X o o . ",
"  o o o %.) ) ) ) ) K K z ; ; ; 1 K ) ) / / K ) ) ) ) K K z % % % - 1 1 7 7 N K K K K K K K N 1 , , , > > > ; 1 A N N K X o o . ",
". o o o z w 7 7 w 7 w w , - - - > 7 7 7 7 7 7 7 7 7 7 7 7 1 % % % - 1 1 1 1 7 7 7 7 7 7 7 7 7 , > , , ; = = % > 7 7 7 j X o o . ",
"  o o o < , , , , , , , ; % % % - > , , > , , , , , , , > > % % % = , , , , , , > > , , > , > > > > > - $ $ $ = > > > , X o o . ",
"  o o o < , , , , , , , > % % % - , , , , , , , , , , , , > % % % - , , , , , , , , , , , , , , > , > - % $ $ - , , , < X o o . ",
"  o o o < , , , , , , , > % % % - , , , , , , , , , , , , > % % = - , , , , , , , , , , , , , , , , > - % % % - , , , < X o o . ",
"  o o o - = = = - = = = * # $ $ $ - = = = = = = = = = = - = $ $ $ $ = = = = = = = = = = = = = = = = = $ @ @ @ $ = = = - X o o . ",
"  o o o + + + + + + + + + + + + + + + + + + + + + + + + + + + + + + + + + + + + + + + + + + + + + + + + + + + + + + + + o o o   "
};
