/* XPM */
static char *C_item[] = {
/* columns rows colors chars-per-pixel */
"64 64 171 2 ",
"   c #130C16",
".  c #150D1C",
"X  c #180F1D",
"o  c #1B1A17",
"O  c #17121A",
"+  c #1A121D",
"@  c #1D1B1A",
"#  c #24121D",
"$  c #2B151D",
"%  c #201D1D",
"&  c #2C1B1E",
"*  c #341D1E",
"=  c #3E1A1D",
"-  c #33161D",
";  c #22211E",
":  c #36211F",
">  c #3D231E",
",  c #2A1622",
"<  c #241F22",
"1  c #2E1822",
"2  c #341A22",
"3  c #3F1B21",
"4  c #262321",
"5  c #292623",
"6  c #2B2925",
"7  c #2D2928",
"8  c #392422",
"9  c #312D2A",
"0  c #332322",
"q  c #451C1D",
"w  c #4A1D1B",
"e  c #511E1B",
"r  c #42241D",
"t  c #4A2C1F",
"y  c #55231D",
"u  c #59241D",
"i  c #532B1E",
"p  c #5A2F1D",
"a  c #53321E",
"s  c #612B1C",
"d  c #6A2D1D",
"f  c #69361D",
"g  c #603B1F",
"h  c #6B3C1F",
"j  c #7A311B",
"k  c #45232A",
"l  c #4E2629",
"z  c #572A2C",
"x  c #5C2D2F",
"c  c #5C2D30",
"v  c #6A3C20",
"b  c #6C401F",
"n  c #71421E",
"m  c #7E491E",
"M  c #6C4120",
"N  c #8D2117",
"B  c #942C18",
"V  c #81361E",
"C  c #853E1D",
"Z  c #8C3C1D",
"A  c #933D1C",
"S  c #A72614",
"D  c #AB2414",
"F  c #AD2914",
"G  c #B12312",
"H  c #B22B15",
"J  c #A53A19",
"K  c #B33416",
"L  c #B53915",
"P  c #B93A16",
"I  c #BC3C18",
"U  c #843026",
"Y  c #893126",
"T  c #C33D15",
"R  c #C83C16",
"E  c #C33C18",
"W  c #854D1F",
"Q  c #8B4C1D",
"!  c #97401A",
"~  c #994F1F",
"^  c #944C1E",
"/  c #8B531F",
"(  c #94571F",
")  c #98541F",
"_  c #97581E",
"`  c #9C5A1F",
"'  c #AE471A",
"]  c #BC4D1C",
"[  c #BB5C1D",
"{  c #B0671F",
"}  c #BE661F",
"|  c #834B20",
" . c #894D20",
".. c #8E5020",
"X. c #955220",
"o. c #995520",
"O. c #955A20",
"+. c #9C5920",
"@. c #954439",
"#. c #9C463A",
"$. c #A05721",
"%. c #A15D21",
"&. c #BC543D",
"*. c #AC6221",
"=. c #AD6922",
"-. c #C54316",
";. c #C84116",
":. c #C34718",
">. c #CD4618",
",. c #C34D1B",
"<. c #CE4919",
"1. c #D24D19",
"2. c #C5501B",
"3. c #CC511B",
"4. c #D4531B",
"5. c #DE561B",
"6. c #D45B1C",
"7. c #DE581C",
"8. c #DC5A1C",
"9. c #E0571B",
"0. c #E05F1C",
"q. c #E35B1C",
"w. c #CD661D",
"e. c #C36B1F",
"r. c #C36D1E",
"t. c #CF6C1E",
"y. c #D6601C",
"u. c #D5631D",
"i. c #CF771F",
"p. c #E6671E",
"a. c #E4601D",
"s. c #EB621D",
"d. c #E6691E",
"f. c #E86B1E",
"g. c #E96D1E",
"h. c #E2751F",
"j. c #ED731E",
"k. c #EB791E",
"l. c #F2791F",
"z. c #C16B20",
"x. c #C36E20",
"c. c #C36B21",
"v. c #CA6F21",
"b. c #CA7320",
"n. c #CF7921",
"m. c #D17822",
"M. c #D97D20",
"N. c #E77320",
"B. c #E57C21",
"V. c #E37B21",
"C. c #EB7D21",
"Z. c #F07720",
"A. c #F17A20",
"S. c #F27D20",
"D. c #F27D21",
"F. c #F2841F",
"G. c #EA8121",
"H. c #F58121",
"J. c #F68321",
"K. c #F68121",
"L. c #F78521",
"P. c #F68321",
"I. c #F88622",
"U. c #F88521",
"Y. c #F98722",
"T. c #F58B22",
"R. c #FA8822",
"E. c #FA8922",
"W. c #FA8922",
"Q. c #FA8922",
"!. c #FA9222",
/* pixels */
"6 6 6 6 6 6 6 6 6 6 6 6 6 6 6 6 6 6 6 6 6 6 6 6 6 6 6 6 6 6 6 6 6 6 6 6 6 6 6 6 6 6 6 6 6 6 6 6 6 6 6 6 6 6 6 6 6 6 6 6 6 6 6 6 ",
"6 6 6 6 6 6 6 6 6 6 6 6 6 6 6 6 6 6 6 6 6 6 6 6 6 6 6 6 6 6 6 6 6 6 6 6 6 6 6 6 6 6 6 6 6 6 6 6 6 6 6 6 6 6 6 6 6 6 6 6 6 6 6 6 ",
"6 6 6 6 6 6 6 6 6 6 6 6 6 6 6 6 6 6 6 6 6 6 6 6 6 6 6 6 6 6 6 6 6 6 6 6 6 6 6 6 6 6 6 6 6 6 6 6 6 6 6 6 6 6 6 6 6 6 6 6 6 6 6 6 ",
"6 6 6 6 6 6 6 6 6 6 6 6 6 6 6 6 6 6 6 6 6 6 6 6 6 6 6 6 6 6 6 6 6 6 6 6 6 6 6 6 6 6 6 6 6 6 6 6 6 6 6 6 6 6 6 6 6 6 6 6 6 6 6 6 ",
"6 6 6 6 6 6 6 6 6 6 6 6 6 6 6 6 6 6 6 6 6 6 6 6 6 6 6 6 6 6 6 6 6 6 6 6 6 6 6 6 6 6 6 6 6 5 ; 4 6 6 6 6 6 6 6 6 6 6 6 6 6 6 6 6 ",
"6 6 6 6 6 6 6 6 6 6 6 6 6 6 6 6 6 6 6 6 6 6 6 6 6 6 6 6 6 6 6 6 6 6 6 6 6 6 6 6 6 6 6 6 5 @ o @ 6 6 6 6 6 6 6 6 6 6 6 6 6 6 6 6 ",
"6 6 6 6 % @ ; 6 6 6 6 6 6 6 6 6 6 6 6 6 6 6 6 6 6 6 6 6 6 6 6 6 6 6 6 6 6 6 6 6 6 6 6 6 % o @ @ 5 6 6 6 6 6 6 6 6 6 6 6 6 6 6 6 ",
"6 6 6 6 @ o o 5 6 6 6 6 6 6 6 6 6 6 6 6 6 6 6 6 6 6 6 6 6 6 6 6 6 6 6 6 6 6 6 6 6 6 6 6 ; o o @ 5 6 6 6 6 6 6 6 6 6 6 6 6 6 6 6 ",
"6 6 6 6 ; o ; 6 6 6 6 6 6 6 6 6 6 6 6 6 6 6 6 6 6 6 6 6 6 6 6 6 6 6 6 6 6 6 6 6 6 6 6 6 6 4 ; 5 6 6 6 6 6 6 6 6 6 6 6 6 6 6 6 6 ",
"6 6 6 6 6 5 6 6 6 6 6 6 6 6 6 6 6 6 6 6 6 6 6 6 6 6 6 6 6 6 6 6 6 6 6 6 6 6 6 6 6 6 6 6 6 6 7 6 6 6 6 6 6 6 6 6 6 6 6 6 6 6 6 6 ",
"6 6 6 6 6 6 6 6 6 6 6 6 6 6 6 6 6 6 6 6 6 6 6 6 6 6 6 6 6 %     . . . .   6 6 6 6 6 6 6 6 6 6 6 6 6 6 6 6 6 6 6 6 6 6 6 6 6 6 6 ",
"6 6 6 6 6 6 6 6 6 6 6 6 6 6 6 6 6 6 6 6 6 6 6 6 6 6 6 6 6 % . X X X X X   6 6 6 6 6 6 6 6 6 6 6 6 6 6 6 6 6 6 6 6 6 6 % @ 5 6 6 ",
"6 6 6 6 6 6 6 6 6 6 6 6 6 6 6 6 6 6 6 6 6 6 6 6 6 6 6 6 6 % # $ $ + X X   6 6 6 6 6 6 6 6 6 6 6 6 6 6 6 6 6 6 6 6 6 5 o o 5 6 6 ",
"6 6 6 6 6 6 6 6 6 6 6 6 6 6 6 6 6 6 6 6 6 6 6 6 6 6 5 5 6 8 Y Y U 3 X X   6 6 6 6 6 6 6 6 6 6 6 6 6 6 6 6 6 6 6 6 6 6 4 4 6 6 6 ",
"6 6 6 6 6 6 6 6 6 6 6 6 6 6 6 6 6 6 6 6 6 6 6 6 6 6 % . . 2 &.&.&.z X X   6 6 6 6 6 6 6 6 6 6 6 6 6 6 6 6 6 6 6 6 6 6 6 6 6 6 6 ",
"6 6 6 6 6 6 6 6 6 6 6 6 6 6 6 6 5 5 6 6 6 6 6 6 6 6 4 X X 2 &.&.&.x X X   6 6 6 6 6 6 6 6 6 6 6 6 6 6 6 6 6 6 6 6 6 6 6 6 6 6 6 ",
"6 6 6 6 6 6 6 6 6 6 6 6 6 6 6 ; o o 4 4 4 4 4 4 4 4 % X X 2 &.&.&.c X X . ; ; ; ; ; ; ; ; 4 4 6 6 6 6 6 6 6 6 6 6 6 6 6 6 6 6 6 ",
"6 6 6 6 6 6 6 6 6 6 6 6 6 6 ; o o + + + + + + + + + + X X 1 #.#.#.l X X X + + + + + + + + + o 6 6 6 6 6 6 6 6 6 6 6 6 6 6 6 6 6 ",
"6 6 6 6 6 6 6 6 6 6 6 6 6 6 @ o o X X X X X X X X X X X X , @.@.@.k X X X X X X X X X X X X + 6 6 6 6 6 6 6 6 6 6 6 6 6 6 6 6 6 ",
"6 6 6 6 6 6 6 6 6 6 6 6 6 6 4 @ @ X + X X X + X X X X X X , @.@.@.k X X X X X X X X X X X X O 7 6 6 6 6 6 6 6 6 6 6 6 6 6 6 6 6 ",
"6 6 6 6 6 6 6 6 6 6 6 6 9 < . . a e.x.r.r.z.z.B N N ' B.B.V.8.4.4.E G D D 1.<.1.h.B.B.h.4.4.] # . . 9 6 6 6 6 6 6 6 6 6 6 6 6 6 ",
"6 6 6 6 6 6 6 6 6 6 6 6 9 5 X X h U.R.R.R.R.R.K S S ,.L.L.H.a.7.7.R G G G 4.1.4.D.H.H.j.7.7.,.# X X 9 6 6 6 6 6 6 6 6 6 6 6 6 6 ",
"6 6 6 6 6 6 6 6 6 6 6 6 9 < X X v U.R.R.R.R.R.K S S ,.U.U.H.0.7.7.R G G G 4.1.4.D.H.H.j.5.7.,.X X X 7 6 6 6 6 6 6 6 6 6 6 6 6 6 ",
"6 6 6 6 6 6 6 6 6 6 o o o t h h +.U.R.R.R.R.R.3.:.:.y.U.U.H.f.p.p.4.T T T 1.1.1.A.H.H.C.f.f.6.d d d : o o ; 6 6 6 6 6 6 6 6 6 6 ",
"6 6 6 6 6 6 6 6 6 6 . X X +.R.R.R.R.R.R.R.U.U.U.R.R.R.L.U.L.H.H.H.A.j.j.d.T -.-.C.H.H.H.L.L.D.4.5.9.u X X % 6 6 6 6 6 6 6 6 6 6 ",
"6 6 6 6 6 6 6 6 6 6 . X X o.U.R.R.R.R.R.U.U.U.U.U.U.R.U.U.L.H.H.H.l.j.j.d.T -.-.A.H.H.H.U.U.D.5.5.9.y X X @ 6 6 6 6 6 6 6 6 6 6 ",
"6 6 6 6 6 6 6 6 6 6 . X X o.U.R.R.R.R.R.b.b.b.B.R.R.R.U.U.U.U.L.H.H.S.D.j.6.6.6.v.v.b.V.U.U.D.5.5.9.u X X @ 6 6 6 6 6 6 6 6 6 6 ",
"6 6 6 6 6 6 6 6 6 6 . X X o.R.R.R.R.R.!.: & & O.U.U.R.U.U.U.U.U.U.U.L.H.H.U.U.R.t & & +.U.U.D.5.7.9.y X X @ 6 6 6 6 6 6 6 6 6 6 ",
"6 6 6 6 6 6 6 6 6 6 . X X o.R.R.R.R.R.!.# X X / U.U.U.R.U.U.U.U.U.U.R.U.U.U.U.R.> X X X.U.U.D.7.5.9.y X X % 6 6 6 6 6 6 6 6 6 6 ",
"6 6 6 6 6 6 6 6 6 6 . X X o.R.R.R.R.R.!.$ X X / U.U.U.R.U.R.U.U.R.R.R.U.U.U.U.R.> + X X.L.H.A.5.5.q.u X X % 6 6 6 6 6 6 6 6 6 6 ",
"6 6 6 6 6 6 6 6 6 6 . X X o.R.R.G.{ *.=.# X X a  .| *.R.R.R.U.R.R.U.R.R.W.n b M # X X r v h C q.5.9.u X X % 6 6 6 6 6 6 6 6 6 6 ",
"6 6 6 6 6 6 6 6 6 6 . X X o.R.R.b.X X X X X X X X X h R.R.R.R.R.R.R.R.R.!.# X X X X X X X X = q.7.9.u X X % 6 6 6 6 6 6 6 6 6 6 ",
"6 6 6 6 6 6 6 6 6 6 . X X o.R.R.b.X X X X X X X X X h R.R.U.U.U.U.R.R.R.!.# X X X X X X X X = q.5.9.y X X % 6 6 6 6 6 6 6 6 6 6 ",
"6 6 6 6 6 6 6 6 6 6 . X X ) R.R.i.* * * * * * * * * m R.R.L.M.m.n.P.R.R.!.: * * * * * * * * i q.5.q.u X X % 6 6 6 6 6 6 6 6 6 6 ",
"6 6 6 6 6 6 6 6 6 6 . X X ) R.R.L.G.G.G.G.G.G.G.G.G.P.L.U.V.t # X b.L.L.L.C.C.C.C.C.C.G.G.C.V.5.5.q.u X X % 6 6 6 6 6 6 6 6 6 6 ",
"6 6 6 6 6 6 6 6 6 6 . X X ) R.R.R.U.U.U.U.U.R.R.R.R.U.H.H.V.r X . v.H.H.L.L.L.L.L.L.U.U.U.U.D.5.5.9.u X X % 6 6 6 6 6 6 6 6 6 6 ",
"6 6 6 6 6 6 6 6 6 6 . X X ) R.R.R.R.R.U.W.W.W.R.R.R.U.H.H.V.> X . z.H.H.H.L.L.L.R.T.R.R.U.U.S.5.7.q.u X X % 6 6 6 6 6 6 6 6 6 6 ",
"6 6 6 6 6 6 6 6 6 6 . X X ) R.R.k.L P I q * - %.R.R.L.D.D.H.T.T.T.L.S.H.H.L.U.U.i & & $.R.R.C.T T ;.y X X % 6 6 6 6 6 6 6 6 6 6 ",
"6 6 6 6 6 6 6 6 6 6 . + X ) R.R.k.F F H $ X X ) U.U.H.A.A.D.R.R.R.H.D.S.H.U.U.R.> X + o.R.R.C.T T ;.e X X % 6 6 6 6 6 6 6 6 6 6 ",
"6 6 6 6 6 6 6 6 6 6 . X X X.R.R.k.F F H $ X X _ R.U.J.A.A.D.R.R.R.H.D.D.H.U.U.W.> X + X.R.R.C.T T ;.e X X % 6 6 6 6 6 6 6 6 6 6 ",
"6 6 6 6 6 6 6 6 6 6 . + X ^ Z.l.j.7.7.q.- X X g ` +.} j.j.N.*.+.+.t.j.j.l.+.` ` & X X ..R.R.D.T T ;.e X X % 6 6 6 6 6 6 6 6 6 6 ",
"6 6 6 6 6 6 6 6 6 6 . X X Z 0.a.a.0.0.s.- X X X X X f f.f.y.r X X ~ j.j.j.X X X X X X  .R.R.D.T T ;.e X X @ 6 6 6 6 6 6 6 6 6 6 ",
"6 6 6 6 6 6 6 6 6 6 . X X A a.a.a.0.0.s.- X X X X X f f.f.y.r X X ~ j.j.j.X X X X X X W R.R.D.T T ;.e X X @ 6 6 6 6 6 6 6 6 6 6 ",
"6 6 6 6 6 6 6 6 6 6 o + + C 6.6.8.0.0.s.q $ $ + X X p w.w.[ = X X Q w.w.t.X X X $ & & Q F.F.h.L L P w .   @ 6 6 6 6 6 6 6 6 6 6 ",
"6 6 6 6 6 6 6 6 6 6 9 9 7 # $ $ Z 5.7.9.4.3.4.u X X + # # # X X X + # # # X X # ] 3.4.4.<.<.J # # # 4 5 5 6 6 6 6 6 6 6 6 6 6 6 ",
"6 6 6 6 6 6 6 6 6 6 6 6 5 + X X V 9.5.7.5.9.q.d X X X X X X X X X X X X X X X $ 3.7.7.4.>.>.J X X . 4 6 6 6 6 6 6 6 6 6 6 6 6 6 ",
"6 6 6 6 6 6 6 6 6 6 6 6 5 O . . V 9.9.9.9.q.q.d X X X . X . X X X X . . X X X # 3.9.9.7.>.<.J   .   4 6 6 6 6 6 6 6 6 6 6 6 6 6 ",
"6 6 6 6 6 6 6 6 6 6 6 6 7 7 7 7 8 = = = = = = A 3.4.4.4.4.4.4.4.4.4.4.3.3.2.,.] u q q q q q q 4 4 5 5 6 6 6 6 6 6 6 6 6 6 6 6 6 ",
"6 6 6 6 6 6 6 6 6 6 6 6 6 6 6 6 < X X X X X X ! 7.7.7.7.7.5.7.7.9.7.7.7.9.7.7.4.* X X X X X + 6 6 6 6 6 6 6 6 6 6 6 6 6 6 6 6 6 ",
"6 6 6 6 6 6 6 6 6 6 6 6 6 6 6 6 % X X X X X X A 7.7.7.7.7.7.7.7.7.7.7.7.9.7.7.4.* X X X X X + 6 6 6 6 6 6 6 6 6 6 6 6 6 6 6 6 6 ",
"6 6 6 6 6 6 6 6 6 6 6 6 6 6 6 6 4 < < < < < < s j j j j j j j j j j j j j j j j 0 < < < < 4 4 6 % @ ; 6 6 6 6 6 6 6 6 6 6 6 6 6 ",
"6 6 6 6 6 6 6 6 6 6 6 6 6 6 6 6 6 6 6 6 6 6 6 o + X + X X X X X X X X X X X X + 4 6 6 6 6 6 6 6 @ o o 5 6 6 6 6 6 6 6 6 6 6 6 6 ",
"6 6 6 6 6 6 6 6 6 6 6 6 6 6 6 6 6 6 6 6 6 6 6 o X X X X X X X X X X X X X X X + 4 6 6 6 6 6 6 6 ; o ; 6 6 6 6 6 6 6 6 6 6 6 6 6 ",
"6 6 6 6 6 6 6 6 6 6 6 6 6 6 6 6 6 6 6 6 6 6 6 @ O O O O O O O O O + O O + O O + 5 6 6 6 6 6 6 6 6 5 6 6 6 6 6 6 6 6 6 6 6 6 6 6 ",
"6 6 6 6 5 6 6 6 6 6 6 6 6 6 6 6 6 6 6 6 6 6 6 6 6 6 6 6 6 6 6 6 6 6 6 6 6 6 6 6 6 6 6 6 6 6 6 6 6 6 6 6 6 6 6 6 6 6 6 6 6 6 6 6 ",
"6 6 5 @ @ 5 6 6 6 6 6 6 6 6 6 6 6 6 ; % ; 4 6 6 6 6 6 6 6 6 6 6 6 6 6 6 6 6 6 6 6 6 6 6 6 6 6 6 6 6 6 6 6 6 6 6 6 6 6 6 6 6 6 6 ",
"6 6 4 o @ 6 6 6 6 6 6 6 6 6 6 6 6 5 o o o o ; 6 6 6 6 6 6 6 6 6 6 6 6 6 6 6 6 6 6 6 6 6 6 6 6 6 6 6 6 6 6 6 6 6 6 6 6 6 6 6 6 6 ",
"6 6 6 4 5 6 6 6 6 6 6 6 6 6 6 6 6 6 @ @ @ o ; 7 6 6 6 6 6 6 6 6 6 6 6 6 6 6 6 6 6 6 6 6 6 6 6 6 6 6 6 6 6 6 6 6 6 6 6 6 6 6 6 6 ",
"6 6 6 6 6 6 6 6 6 6 6 6 6 6 6 6 6 6 ; o o @ 5 6 6 6 6 6 6 6 6 6 6 6 6 6 6 6 6 6 6 6 6 6 6 6 6 6 6 6 6 6 6 6 6 6 6 6 6 6 6 6 6 6 ",
"6 6 6 6 6 6 6 6 6 6 6 6 6 6 6 6 6 6 6 ; ; 5 6 6 6 6 6 6 6 6 6 6 6 6 6 6 6 6 6 6 6 6 6 6 6 6 6 6 6 6 6 6 6 6 6 6 6 6 6 6 6 6 6 6 ",
"6 6 6 6 6 6 6 6 6 6 6 6 6 6 6 6 6 6 6 6 6 6 6 6 6 6 6 6 6 6 6 6 6 6 6 6 6 6 6 6 6 6 6 6 6 6 6 6 6 6 6 6 6 6 6 6 6 6 6 6 6 6 6 6 ",
"6 6 6 6 6 6 6 6 6 6 6 6 6 6 6 6 6 6 6 6 6 6 6 6 6 6 6 6 6 6 6 6 6 6 6 6 6 6 6 6 6 6 6 6 6 6 6 6 6 6 6 6 6 6 6 6 6 6 6 6 6 6 6 6 ",
"6 6 6 6 6 6 6 6 6 6 6 6 6 6 6 6 6 6 6 6 6 6 6 6 6 6 6 6 6 6 6 6 6 6 6 6 6 6 6 6 6 6 6 6 6 6 6 6 6 6 6 6 6 6 6 6 6 6 6 6 6 6 6 6 ",
"6 6 6 6 6 6 6 6 6 6 6 6 6 6 6 6 6 6 6 6 6 6 6 6 6 6 6 6 6 6 6 6 6 6 6 6 6 6 6 6 6 6 6 6 6 6 6 6 6 6 6 6 6 6 6 6 6 6 6 6 6 6 6 6 "
};
