/* XPM */
static char *E_exit_closed[] = {
/* columns rows colors chars-per-pixel */
"64 64 177 2 ",
"   c #0F0915",
".  c #100915",
"X  c #150D1C",
"o  c #180F1D",
"O  c #161117",
"+  c #1B1A17",
"@  c #16101A",
"#  c #1A111D",
"$  c #1D1B19",
"%  c #22131E",
"&  c #2B141C",
"*  c #211D1E",
"=  c #2D191D",
"-  c #2C1914",
";  c #32171C",
":  c #3C171D",
">  c #311B1D",
",  c #3B1A1C",
"<  c #22201D",
"1  c #2F211E",
"2  c #35251D",
"3  c #1E1421",
"4  c #241521",
"5  c #291721",
"6  c #251925",
"7  c #2A1925",
"8  c #2E1D2A",
"9  c #331D26",
"0  c #3B1E24",
"q  c #361E28",
"w  c #3C1F29",
"e  c #262321",
"r  c #292624",
"t  c #2B2925",
"y  c #2E2429",
"u  c #35202B",
"i  c #3D212A",
"p  c #461517",
"a  c #4C1716",
"s  c #44171A",
"d  c #441C1C",
"f  c #4C181A",
"g  c #551D19",
"h  c #591F18",
"j  c #6E1D1C",
"k  c #7A1F1A",
"l  c #731D1B",
"z  c #45261C",
"x  c #49261D",
"c  c #472A1D",
"v  c #492B1E",
"b  c #56221E",
"n  c #582018",
"m  c #5C341F",
"M  c #63211A",
"N  c #7B231B",
"B  c #62391C",
"V  c #70341D",
"C  c #7E321B",
"Z  c #462327",
"A  c #43232B",
"S  c #4C262C",
"D  c #4E282D",
"F  c #51272D",
"G  c #54292D",
"H  c #5C2D2E",
"J  c #622F2E",
"K  c #65312F",
"L  c #69322F",
"P  c #673230",
"I  c #6F3531",
"U  c #703531",
"Y  c #6F431E",
"T  c #72411E",
"R  c #7F471F",
"E  c #724E1C",
"W  c #6F4520",
"Q  c #664223",
"!  c #7F4720",
"~  c #841E1E",
"^  c #83201E",
"/  c #8B231C",
"(  c #962E15",
")  c #9D2F15",
"_  c #83321B",
"`  c #9E3015",
"'  c #973C1B",
"]  c #AE3D0F",
"[  c #B13E0F",
"{  c #A33412",
"}  c #AB3512",
"|  c #A73911",
" . c #AD3B11",
".. c #B63613",
"X. c #BC3312",
"o. c #B33C11",
"O. c #BC3A13",
"+. c #C43613",
"@. c #C03B15",
"#. c #CB3B15",
"$. c #C83313",
"%. c #824B1E",
"&. c #93531D",
"*. c #A2531D",
"=. c #B9501B",
"-. c #BA5D1C",
";. c #B4651E",
":. c #BE611D",
">. c #8A4D20",
",. c #925221",
"<. c #C44415",
"1. c #C74C1B",
"2. c #CD4B19",
"3. c #D04D17",
"4. c #D34E19",
"5. c #CC501B",
"6. c #D65119",
"7. c #DB531A",
"8. c #E1511B",
"9. c #C16F1E",
"0. c #C7641B",
"q. c #D56D1F",
"w. c #DD6B1D",
"e. c #DE7119",
"r. c #DB7D1E",
"t. c #E1611D",
"y. c #E46B1D",
"u. c #E3791C",
"i. c #EA7B1E",
"p. c #E2761C",
"a. c #F07B1F",
"s. c #CF7420",
"d. c #D37722",
"f. c #D67822",
"g. c #DB7A21",
"h. c #E67E21",
"j. c #F17B20",
"k. c #DC811D",
"l. c #E38617",
"z. c #E48816",
"x. c #E58419",
"c. c #EF821F",
"v. c #E48818",
"b. c #F4851F",
"n. c #F5881F",
"m. c #FA8B1F",
"M. c #F3931E",
"N. c #FD951E",
"B. c #F29A1A",
"V. c #FE9F1A",
"C. c #FE9E1A",
"Z. c #FE9A1D",
"A. c #FE9D1C",
"S. c #FE9E1C",
"D. c #FE991D",
"F. c #FEA119",
"G. c #FEA01A",
"H. c #EE8220",
"J. c #EE8521",
"K. c #ED8621",
"L. c #ED8921",
"P. c #F38321",
"I. c #F48521",
"U. c #F98722",
"Y. c #F88721",
"T. c #F98722",
"R. c #F68B22",
"E. c #F98921",
"W. c #FB8A21",
"Q. c #F98822",
"!. c #FB8922",
"~. c #FA8A21",
"^. c #FC8E21",
"/. c #FA8922",
"(. c #F69020",
"). c #FA9520",
"_. c #FB9221",
/* pixels */
"t t t t t t t t t t t t t t t t t t t t t 6 o # o o o o # o o o o o o o o o o o o o o e t t t t t t t t t t t t t t t t t t t t ",
"t t t t t t t t t t t t t t t t t t t t t e o o o o o o o o o o o o o o # o o o o o X e t t t t t t t t t t t t t t t t t t t t ",
"t t t t t t t t t t t t t t t t r r t r e Q Y W Y Y T Y Y E E E E E E E E E E T T T B * * * < e e r t t t t t t t t t t t t t t ",
"t t t t t t t t t t t t t t t t < 3 3 3 3 ;.J.J.H.H.J.H.L.M.B.B.B.B.B.B.B.B.B.H.H.H.s.> # # # # # @ t t t t t t t t t t t t t t ",
"t t t t t t t t t t t t t t t t * o o # # ;.W.E.E.E.E.E.N.V.G.G.G.G.G.G.G.G.V.E.T.T.g.> o o o # o . t t t t t t t t t t t t t t ",
"t t t t t t t t t t t t t t t t * o o o # ;.E.E.E.E.E.E.^.S.V.V.V.V.G.G.G.G.V.E.T.T.g.> o o o o o . t t t t t t t t t t t t t t ",
"t t t t * + < t t t t t t e e e * v v v v 9.^.^.n.p.u.u.u.v.z.z.l.z.z.z.z.l.l.c.T.T.h.m c c z g f a 1 * * e t t t t t t t t t t ",
"t t t t + + + r t t t t t X X X z ).R.(.M.N.Z.Z.x.` { { { { { { { { { { { { ` w.T.E.E.I.P.P.P.$.#.#.p X X O e t t t t t t t t t ",
"t t t t < + < t t t t t y X o o , ).^._.N.Z.Z.S.l.{ { | | | | | | | | | | | { w.E.E.E.E.E.T.T.X.+.+.p o o # e t t t t t t t t t ",
"t t t t t r t t t t t t y X o o , ).^._.N.S.S.V.x.{ } | | | | | | | | | | } { w./.E.E.E.E.E.E.X.+.+.f o o # r t t t t t t t t t ",
"t t t t t t t t r + + + 2 %.%.%.&.N.N.N.r.:.:.:.*.g h g h h n h h h h g g g g V ! R >.h.E.E.E.3.6.6.' C C _ , $ $ + t t t t t t ",
"t t t t t t t t e X o o v Y.E.m.E.N.N.N.-.~ ~ ^ j o o o o o o o o o o o o o o o o o = f.E.E.E././.^.t.7.7.8.d o o O t * + r t t ",
"t t t t t t t t e X o o v I.E.E.E.N.Z.Z.0./ / / l o o o o o o o o o o o o o o o o o = d.T.E.E.E.E.E.t.7.7.7.d o # @ r + + r t t ",
"t t t t t t t t e X o o v I.E.E.E.N.Z.Z.0./ / / k o o o o o o o o o o o o # o o o o & d.I.I.T.E.E.E.t.7.7.7.d o o @ t e e t t t ",
"t t t t t t t t e X o o v I.E.E.b.w.e.e.=.N N N j # # # 0 Z Z Z Z Z Z 0 7 7 7 w Z D G T %.%.,.E.T.T.t.7.7.7.d o # @ t t t t t t ",
"t t t t t t t t e X o o v P.T.E.i.X.O.O.( 3 4 4 4 6 6 4 H I U U U I U D q q q F K K H % o o , R.T.T.t.6.6.7.d o o @ t t t t t t ",
"t t t t t t t t e X o o z P.T.E.i.X.O.O.( 3 4 4 4 6 6 6 H I U U U I U F w q q F K K H % o o , Y.E.T.t.4.6.7.d o # O t t t t t t ",
"t t t t t t t t r X X X z Y./._.i.....O.` 3 3 4 4 6 6 6 H I U U U U U G w w q G K K J 4 # # 0 _././.y.7.7.7.b & & & t t t t t t ",
"t t t t t   .   - k.N._.c.<.<.<. .h M M g 6 6 6 7 q q q J I U I I I I G w w w F P P J u y 8 8 o o X R.E././.4.#.#.} . . . $ t t ",
"t t t t t . o o > r.E.T.i.O.O.O.( # o o 3 6 6 6 6 q q q J I I U I I I F w w w F P P J u 8 8 8 o o X P.E.E.E.2.@.@.{ o # o * t t ",
"t t t t t . o o > g.E.E.i.O.O.O.( o o # # 6 6 6 7 q q q J I I I I I I F w w w F K K J u 9 9 8 o o X J.E.E.E.2.@.O.) o o o * t t ",
"t t t t t . o o > g.E.E.i.O.O.O.( o o # # 9 9 9 9 w w w J I I I I I I F w w w G P P K u 9 u 8 o # X J.E.E.E.2.@.O.) o # o * t t ",
"t t t t t   o o > g.E.E.i.O.O.O.( X o o 4 F F F S 0 w w J I I I I I I F w w w G U I P i i i u o o X J.E.E.E.2.@.O.) o o o * t t ",
"t t t t t   o o > g.E.E.i.O.O.O.( X o o 4 G F F S q w w J I I I U U I F w w w G U I P i i i u o o X J.E.E.E.2.@.O.) o o o * t t ",
"t t t t t   o o > g.E.E.i.O.O.O.( o o o 4 G G G S q w w J I U I I U I F w w w G U U P i i i u o o X K.E.E.E.2.@.O.) o o o * t t ",
"t t t t t . o o > g.E.E.i.O.O.O.( o o o 4 G G G S q i w J I U U U I I F w w w G U U P S S S A X o X J.E.E.E.2.@.O.) o o o * t t ",
"t t t t t   o o = g.E.E.i.O.O.O.( o o o % G G G S w i w J I U I U U I F w w w G U U U U U U L X o X J.E.E.E.2.@.O.) o o o * t t ",
"t t t t t   o o > g.E.E.i.O.O.O.( o o o 4 G G G S w i w J I U U U I I G w w w G U U U U U I L X o X J.E.E.E.2.@.O.) o o o * t t ",
"t t t t t . o o > g.E.E.i.O.O.O.( o o o 4 G G G S w i w K I I U U I I F w w w G U U U U U I L X o X J.E.E.E.2.@.@.) o o o * t t ",
"t t t t t . o o > g.E.E.i.O.O.O.) o o o 4 G G G S w i w J I I I I I I F w w w G U U U U U U L X o X J.E.E.E.2.@.@.) o o o * t t ",
"t t t t t . o o = g.E.E.i.O.O.O.` X o o 4 G G G S w i w K I U U U I U G w w w G I U U U U I K o o X J.E.E.E.2.O.O.) o o o * t t ",
"t t t t t . o o = g.E.E.i.O.O.O.` o o o 4 G G G S w i w J I I I U U U F w w w G I U I U I I K X o X J.E.E.E.2.@.O.) o o o * t t ",
"t t t t t . o o > g.E.E.i.O.O.O.` X o o 4 G G G S w i i J I I I I I I F w w w G I I I I I I K X o X J.E.E.E.2.@.O.) o o o * t t ",
"t t t t t . o # > g.E.E.i.O.o.O.{ X o o 4 G G G S w i w K I I I U I I F w w w D H H K I L L K X o X J.E.E.E.2.@.O.) o o o * t t ",
"t t t t t . o o > g.E.E.i.O.o.O.{ X o o 4 G F F S w i w J I I U I U I F w w w A A S F L K K K X o X J.E.E.E.2.@.O.) o o o * t t ",
"t t t t t . o o > g.E.E.i.o.o.o.{ X o o 4 F F F S w w w J I I I I I I F w w w A S S F K K K K X o X J.E.E.E.2.@.O.) o o o * t t ",
"t t t t t . o o > g.E.E.i.o.o.o.{ X o o 4 F F F S w i w J I I I I I I F w w w A A A S K K K K X o o J.E.E.E.2.@.O.) o o o * t t ",
"t t t t t . o o > g.E.E.i.o.o.o.{ X o o 4 F S S S w i w J I I I I I I F w w w D J J K L L L K X o o J.E.E.E.2.@.O.) o o o * t t ",
"t t t t t . o o > g.E.E.i.o.o.O.} X o o 4 F S S S w w w J I I I I I I F w w w G I I I I I I K X o o J.E.E.E.2.@.O.) o o o * t t ",
"t t t t t . o o > g.E.E.i.o.o.O.} X o o 4 S S S S w i w J I I I I I I F w w w G I I I I I I K X o o L.E.E.E.2.@.@.) o o o * t t ",
"t t t t t . o o > g.E.E.i.o.o.O.} X o o 4 S S S A w w w K I I I U U U F w w w G I I I I I I K X o X J.E.E.E.2.@.O.) o o o * t t ",
"t t t t t . o o > g.E.E.i.o.o.o.} X o o 4 A A A i w w w K I I I U U I G w w w G I I G 5 5 5 & o o X J.E.E.E.2.@.@.) o o o * t t ",
"t t t t t . o o > g.E.E.i.o.o.o.} X o o 4 i i i i i w w J I I I U U U F w w w G I I D o o o o o o X K.E.E.E.2.@.@.` o o o * t t ",
"t t t t t . o o > g.E.E.i.o. .o.} X o o 4 i i i i i i w K I I I I I U F w i w G I I D o o o o o o X K.E.E.E.2.O.@.{ o o o * t t ",
"t t t t t . o o > g.E.E.i.o. .o.} X o o 4 i i i i i i w K I I I I I I G w w w G I I D o o # # o o o J.E.E.E.2.@.@.{ o o o * t t ",
"t t t t t   o o > g.E.E.i.[ o.o.} X o o 3 i i i i i i i K I I I I I I F w i w G U I U U U U L X o o J.E.E.E.2.@.O.` o o o * t t ",
"t t t t t . o o > g.E.E.i.[ ] o.} X o o 3 i i i i i i i K I I I I I I F w w w G I I I I I I K X o o J.E.E.E.2.O.O.` o o o * t t ",
"t t t t t . o o > g.E.E.i.o.] o.} X o o 3 u i i i i i i K I I I I I I F w i w G I I I I I I K X o o K.E.E.E.2.O.O.) o o o * t t ",
"t t t t t . o o > g.E.E.i.o.] [ } X o o 4 A A A A i i i K I I I I I I F w i w G I I I I I I K X o o J.E.E.E.2.O.O.) o o o * t t ",
"t t t t t . o # > g.E.E.i. .] o.} X o o 4 G G G F i A i K I I I I I I F w w w G I I I I U I K X o o J.E.E.E.2.O.O.` o o o * t t ",
"t t t t t . o o > g.E.E.i.] ] o. .X o o 4 G G G F i i i J I I I I I I F w w w G I I I I U U K X o o J.E.E.E.2.O.O.) o o o * t t ",
"t t t t t   o o > g.T.E.i.[ ]  . .X o o 4 G G G F i i i K I I I I I I F w w w G I I I I U U K X o o J.E.E./.2.O.O.) o o o * t t ",
"t t t t t . o o > g.E.E.i.[ ]  .o.X o o 4 G G G F i i i J I I I I I I F w i w G I I I I U I K X o o J.E.E.E.2.O.O.) o o o * t t ",
"t t t t t   o o > g.E.E.i.=.]  .o.o o o 4 G G G F w i i J I I I I I I G i w w G I I I I I I K X o o J.E.E.E.2.O.O.) o o o * t t ",
"t t t t r . o o > g.E.E.i.o.]  .o.X o o 5 G G G F w i w J I I I I I I G w i w G I I I I I I K X o o J.E.E./.2.O.O.) o o o * t t ",
"t t r $ $ . o o > r.E.E.i. .]  . .X o o 5 G G G F w i i J I I I I I I F w i i G I I I I I I K X o o J.E.E.E.2.O.O.` o o o * t t ",
"t t e + $ . o o > q.j.a.y.o.]  . .X o o 4 G G G F i A i G J J J J J J S i i w F K K K K K K H o o o J.E.E.E.2.O.O.` o o o * t t ",
"t t t e r   o o ; 1.6.6.3. . . . .X o o 4 G G G F i A i A S S S S S S A i i i A F F F S F F S X o o J.E.E.E.2.O.O.) o o o * t t ",
"t t t t t   o o ; 1.7.7.4. . . . .X o o 4 G G G F i A i S S S S S S S A i i i S F F F F F F S X o o J.E.E.E.2.O.O.) o o o * t t ",
"t t t t t . o o ; 1.7.7.4. . . . .X o o 4 G G G F i A i S S S S S S S A A A i S F F F F F F S o o o J.E.E.E.2.O.O.` o o o * t t ",
"t t t t t . o o > 5.7.7.6.o.[ o.o.X o o 4 H H H G i A A S S S S D D S A A A A S F F G G G G S X o o L././._.6.@.@.{ o o o 6 t t ",
"t t t t t . o o # d d d d , , , : o o o # 4 % % % # 4 4 4 4 4 4 4 4 4 4 4 4 4 4 4 4 4 4 4 4 4 o o o c v v x d : s : o o o * t t ",
"t t t t t . o o o o o o o o o o o o o o o # # # o o o o o o o o o o o o o o o o o o o o o o o o o o # # # o o o o o o o o * t t ",
"t t t t t . # o o o o o o o o # o o o o o # o o o # # o o o # o o o # o o # # # o o o o o o o o o o o o o o o o o o o o # * t t "
};
