/* XPM */
static char *E_exit_open[] = {
/* columns rows colors chars-per-pixel */
"64 64 183 2 ",
"   c #0F0915",
".  c #100915",
"X  c #170E1D",
"o  c #180F1D",
"O  c #1B1A17",
"+  c #16111B",
"@  c #1B111D",
"#  c #1D1A1B",
"$  c #161116",
"%  c #22121C",
"&  c #2B141C",
"*  c #211D1E",
"=  c #2C1C1D",
"-  c #31151C",
";  c #38161C",
":  c #331D1D",
">  c #3D1C1B",
",  c #22201E",
"<  c #38201D",
"1  c #262321",
"2  c #282524",
"3  c #2B2925",
"4  c #372C22",
"5  c #4E1E17",
"6  c #431D1B",
"7  c #4D1E18",
"8  c #521E1C",
"9  c #5E1D1C",
"0  c #691F1D",
"q  c #641C1D",
"w  c #4C2219",
"e  c #442A1D",
"r  c #4B2B1E",
"t  c #42271D",
"y  c #512017",
"u  c #532219",
"i  c #5C251C",
"p  c #512E1E",
"a  c #56321F",
"s  c #59331E",
"d  c #5D391D",
"f  c #642716",
"g  c #6E2815",
"h  c #632B1B",
"j  c #6F2D1C",
"k  c #7D2416",
"l  c #7B2D14",
"z  c #7C231F",
"x  c #702E1C",
"c  c #7D2F1A",
"v  c #752918",
"b  c #643A1C",
"n  c #6B3D1E",
"m  c #7E321B",
"M  c #72341D",
"N  c #573320",
"B  c #792020",
"V  c #6D3E20",
"C  c #7B461F",
"Z  c #7E481F",
"A  c #7C4720",
"S  c #82251D",
"D  c #833315",
"F  c #82331B",
"G  c #8B331A",
"H  c #8D3A1B",
"J  c #8E3317",
"K  c #953511",
"L  c #993611",
"P  c #963812",
"I  c #91381D",
"U  c #A73C0F",
"Y  c #AA3D0F",
"T  c #B13F0F",
"R  c #A33A12",
"E  c #AC3D10",
"W  c #B93212",
"Q  c #B13F10",
"!  c #BE3C14",
"~  c #8D3521",
"^  c #844A1F",
"/  c #9D401A",
"(  c #8B501F",
")  c #9C551D",
"_  c #9B581F",
"`  c #95551E",
"'  c #AB400F",
"]  c #B1400F",
"[  c #AC4010",
"{  c #AD4F17",
"}  c #A74119",
"|  c #AC451A",
" . c #AA4A1F",
".. c #B34111",
"X. c #BC4412",
"o. c #BA4C13",
"O. c #BE491A",
"+. c #A25D1E",
"@. c #AA5E1F",
"#. c #BE5316",
"$. c #BC5A1C",
"%. c #AE601F",
"&. c #A56A1C",
"*. c #BF6A1F",
"=. c #B6631F",
"-. c #935421",
";. c #995520",
":. c #9E5920",
">. c #AF4E21",
",. c #B14F20",
"<. c #BA5A21",
"1. c #B46420",
"2. c #B76821",
"3. c #C34516",
"4. c #CB4617",
"5. c #C54A17",
"6. c #CD4C17",
"7. c #C64D1A",
"8. c #CB4E1A",
"9. c #D04F17",
"0. c #D04E18",
"q. c #C85217",
"w. c #C55916",
"e. c #CA5319",
"r. c #C65919",
"t. c #D15217",
"y. c #D6511A",
"u. c #D8531A",
"i. c #D65B19",
"p. c #D95C1B",
"a. c #CD691F",
"s. c #D46719",
"d. c #DD641B",
"f. c #DA6819",
"g. c #C3731E",
"h. c #DF761A",
"j. c #D7771F",
"k. c #E1611C",
"l. c #E46C1D",
"z. c #E96F1D",
"x. c #E4741C",
"c. c #EA731D",
"v. c #E37B1C",
"b. c #EA7B1F",
"n. c #F07E1E",
"m. c #CC6721",
"M. c #C06A20",
"N. c #CD6920",
"B. c #C17520",
"V. c #D57420",
"C. c #DD7621",
"Z. c #DB7C21",
"A. c #E27E21",
"S. c #EE7F21",
"D. c #F17E20",
"F. c #ED861D",
"G. c #EE881A",
"H. c #F4841F",
"J. c #FA8C1F",
"K. c #F0951B",
"L. c #F0941C",
"P. c #FE921F",
"I. c #FE9E1B",
"U. c #FE9D1C",
"Y. c #FE9B1C",
"T. c #FEA01B",
"R. c #DE8321",
"E. c #E18321",
"W. c #EA8122",
"Q. c #EC8321",
"!. c #F58320",
"~. c #F28420",
"^. c #F98722",
"/. c #F98721",
"(. c #F98721",
"). c #F78A20",
"_. c #F98821",
"`. c #F98822",
"'. c #FA8922",
"]. c #FA8921",
"[. c #FA8C22",
"{. c #FA8A22",
"}. c #FC9120",
/* pixels */
"3 3 3 3 3 3 3 3 3 3 3 3 3 3 3 3 3 3 # X o o o o o o o o o o o X o o o o o o o o o o o + @ 1 3 3 3 3 3 3 3 3 3 3 3 3 3 3 3 3 3 3 ",
"3 3 3 3 3 3 3 3 3 3 3 3 3 3 3 3 3 3 # X o o o X o o o o o o o o o o o o o o o o o o o o @ , 3 3 3 3 3 3 3 3 3 3 3 3 3 3 3 3 3 3 ",
"3 3 3 3 3 3 3 3 3 3 3 3 3 3 2 1 1 1 * % & & & & = = = = = = = = = = = = & & & & & & & & % * 2 1 1 3 3 3 3 3 3 3 3 3 3 3 3 3 3 3 ",
"3 3 3 3 3 3 3 3 3 3 3 3 3 2 * # # O d ` ;.;.;.:.:.+.+.&.&.&.&.&.&.&.&.) H G G G G H H I h = * # # 1 3 3 3 3 3 3 3 3 3 3 3 3 3 3 ",
"3 3 3 3 3 3 3 3 3 3 3 3 3 1 @ + + % ( W.W.W.S.S.W.W.F.L.K.K.K.K.L.L.L.v.7.3.3.3.5.6.e.t.G - + o @ , 3 3 3 3 3 3 3 3 3 3 3 3 3 3 ",
"3 3 3 3 3 3 3 3 3 3 3 3 3 1 + X o % -.[.[.[.[./.[.[.J.Y.I.I.I.U.U.U.U.F.t.4.4.4.0.y.u.u.I - o o + , 3 3 3 3 3 3 3 3 3 3 3 3 3 3 ",
"3 3 3 3 * O , 3 3 3 3 3 3 1 + X X @ -.[.[.[.[.[.[.[.}.U.I.T.T.U.I.T.T.G.t.4.4.4.0.y.u.u.H & X X + 1 3 3 3 3 3 3 3 3 3 3 3 3 3 3 ",
"3 3 3 3 O O O 2 3 1 O O # = s n n V 2.[.[.[.n.d.p.d.f.x.h.h.h.x.h.h.h.f.i.d.l.l.l.z.c.c.$.H m m h : O # # 1 3 3 3 3 3 3 3 3 3 3 ",
"3 3 3 3 , O , 3 3 , . X o : +.V.V.V.S.[.[.[.c.5.! ! 3.e.e.q.q.q.q.q.q.7.d.D.!.!.H.J.J.J.l.e.7.7./ > + + + * 3 3 3 3 3 3 3 3 3 3 ",
"3 3 3 3 3 2 3 3 3 1 . X o < *.[././././.[.[.c.3.W W ! 7.7.5.5.5.5.5.5.3.d./.[.[.[.}.P.J.c.u.y.y.} 6 X X + * 3 3 3 3 3 3 3 3 3 3 ",
"3 3 3 3 3 3 3 3 3 1 . X o : M./././././.[.[.x.3.W W ! 5.5.5.5.5.5.5.5.3.d./.[.[.[.}.P.J.c.u.y.y.} 6 X X + * 3 3 3 3 3 3 3 3 3 3 ",
"3 3 3 3 3 3 , 1 1 4 b n n ^ V./.[./.C.m.N.a.$.J k k k c c c m F m c c c H _ :.@.j.).[.[.c.u.y.y.} 6 X o + * 3 3 3 3 3 * O 2 3 3 ",
"3 3 3 3 3 3 $ + + e g.Z.Z.A.~./.[.~.<.~ I I c 6 & & & & & & & & & & & & & : : r =.~./.!.z.u.y.y.} 6 X o + * 3 3 3 3 2 O O 2 3 3 ",
"3 3 3 3 3 3   X X t R.[.[././.[.[.~.>.B z z q & X X o o o o o o o o o o o X X : %.~.!.!.l.u.y.y.} 6 X o + * 3 3 3 3 3 1 1 3 3 3 ",
"3 3 3 3 3 3 . o o e Z.[.[.[.[.[./.~.,.z S S 0 - o o o o o o o o o o o o X X X : @.A.Q.S.z.p.u.u.| w % % % = 2 2 2 3 3 3 3 3 3 3 ",
"3 3 3 3 3 3 . o o r R.[.[.[.b.b.b.x. .z z z 9 & X X o o o o o o o o o o X o o = C @.1.1.a.l.z.z.r.F f f f w * * * 2 3 3 3 3 3 3 ",
"3 3 3 3 3 3 . X + s E.[.[.H.s.w.#.#.F 8 8 6 ; % X X X X o o o o o o o o o o o @ : t e p _ W.[.[.v.o.Y ] E v + + + 2 3 3 3 3 3 3 ",
"3 3 3 3 3 3 . X + s E.[.[.H.w.Y Y R u X X o o o X X X X X X o X o o o o o o o o o o o % C A.[.[.x.o.Y ] Y l o o + 2 3 3 3 3 3 3 ",
"3 3 3 3 3 3 . o o s E.[.[.~.w.E Y R y X o o o o X X X X X X o o o o o X o o X X X o o % C A.[.[.x.o.Y Y Y l X o + 2 3 3 3 3 3 3 ",
"3 3 3 3 3 3 . X o s E.[.[.~.w.E Y L 8 X o o o o o X X X X o X o o o o o o o X o o o o % C E.[.[.x.o.Y T Y l X o + 2 3 3 3 3 3 3 ",
"3 3 3 3 3 3 . X o s E.[.[.~.w.Y Y L y X X X X o o X X o o X X o o X o X X o X o X X o % C A.[.[.x.o.E Q Y l X o + 2 3 3 3 3 3 3 ",
"3 3 3 3 3 3 . o o s E.[.[.~.w.E Y L y X X X X X o X X o X o X o o X X X o X X X X X o @ C A.[.[.x.o.Y T Y l X o + 2 3 3 3 3 3 3 ",
"3 3 3 3 3 3 . o o s E.[.[.~.w.Y Y L 5 X X X X X X X X o o X o o o o X o X X o o o o o % C A.[.[.x.o.E T E l o o + 2 3 3 3 3 3 3 ",
"3 3 3 3 3 3 . X + N E.[.[.~.w.E Y L 5 X X X X o X o o o o X o X o X o X o X X X X o o % A A.[.[.x.o.E T Y l o o + 2 3 3 3 3 3 3 ",
"3 3 3 3 3 3 . X o a E.[.[.~.w.Y Y L 5 X X o X X X o o X o o X X X o o X o X X o X X o % C A.[.[.x.o.E T E l X o + 2 3 3 3 3 3 3 ",
"3 3 3 3 3 3 . o o a E.[.[.~.w.E Y K 5 X o o X X o o o X X X X X o X o X o o o X X o o @ A A./.[.x.o.E T E l X o + 2 3 3 3 3 3 3 ",
"3 3 3 3 3 3 . o o a R.[.[.~.w.Y Y K 7 X o o X X X o o X X X X X o X o o X X o X X X o @ C A./.[.x.o.E T E l X o + 2 3 3 3 3 3 3 ",
"3 3 3 3 3 3 . o o a R.[.[.H.w.E Y K 7 X o X X X X o o X o X X o o X o X X o o o X o o @ C A././.x.o.E T E l o o + 2 3 3 3 3 3 3 ",
"3 3 3 3 3 3 . o + a R.[.[.~.w.Y Y K 5 o o o X X o o o X X o X o o o o o o X o o o o o @ C A.[.[.x.o.Y Q E l o o + 2 3 3 3 3 3 3 ",
"3 3 3 3 3 3 . o o a R.[.[.~.w.Y Y K 7 X X X X X X X X X o X o X o o o o X o X o o o o @ C A.[.[.x.o.E T E l X o + 2 3 3 3 3 3 3 ",
"3 3 3 3 3 3 . o o a R.[.[.~.w.Y Y K 7 o o X X X X X o o o X X o o X X o X o X o o X o @ C A.[.[.x.o.Y T Y l X o + 2 3 3 3 3 3 3 ",
"3 3 3 3 3 3 . o o a R.[.[.~.w.Y U K 7 o o o X o X X X o X X X X X o X o o X X o o X o @ C A.[.[.x.o.E T Y l X o + 2 3 3 3 3 3 3 ",
"3 3 3 3 3 3 . o o a R.[.[.~.w.Y Y K 7 o o o o o o X o X o X X X o X o o o X o X X o o @ C C.H.H.x.o.E T E l o o + 2 3 3 3 3 3 3 ",
"3 3 3 3 3 3 . o o a R.[.[.~.w.Y Y K 7 o X o o o X X o o o o o X o X o X o X X o o o o @ M r.k.k.i.X.Q Q E l X o + 2 3 3 3 3 3 3 ",
"3 3 3 3 3 3 . o o a R.[.[.~.w.Y Y K 7 o o o o X X o o o o o o o o X o X o X X o o o o @ x 7.u.u.6.X.Q Q E l X o + 2 3 3 3 3 3 3 ",
"3 3 3 3 3 3 . o o a R.[.[.~.w.E Y K 7 o o o X o o o o o o X X o o o o o o X X o o o o @ x 7.u.u.0.X.Q Q E l X o + 2 3 3 3 3 3 3 ",
"3 3 3 3 3 3 . o o a R.[.[.~.w.E Y K 7 o o o o X X X o o o o o o o o o o o X o o o o o @ x 7.u.u.0.X.E Q E l X o + 2 3 3 3 3 3 3 ",
"3 3 3 3 3 3 . o o a R.[.[.H.w.E Y K 7 o X X X o X X X o o o o X o o o o o o X o o o o @ x 7.u.u.0.X.Y T E l X o + 2 3 3 3 3 3 3 ",
"3 3 3 3 3 3 . o o a R.[.[.H.w.[ Y K 7 o X X X o X X X o o X o X o X X o o o X X o o o @ x 7.u.u.0.X.T T E l o o + 2 3 3 3 3 3 3 ",
"3 3 3 3 3 3   o o a R.[.[.~.w.[ Y K 7 X X X X X X X X o o X X o o X X o o o X X o o o @ x 7.u.u.0.X.Q Q E l o o + 2 3 3 3 3 3 3 ",
"3 3 3 3 3 3 . o o a R.[.[.~.w.[ Y K 7 o X X X X X X X o o X X X X o o o o X o X o o o @ x 7.u.u.0.X.Q ..E l o o + 2 3 3 3 3 3 3 ",
"3 3 3 3 3 3 . o o a R.[.[.~.w.[ Y K 7 o o o X X X X X X X o X o o o o o o o o o o o o @ j 7.u.u.9.X.Q ..E l X o + 2 3 3 3 3 3 3 ",
"3 3 3 3 3 3 . o o a E.[.[.~.w.[ Y K 7 o o o o o X X X o o X o X o o o o o o o o o o o @ j 7.u.u.9.X.Q Q E l o o + 2 3 3 3 3 3 3 ",
"3 3 3 3 3 3 . o o a E.[.[.~.w.[ Y K 5 o o o o o X o X o X X o X o o o X o o o o o o o @ j 7.u.u.6.X.Q Q E l X o + 2 3 3 3 3 3 3 ",
"3 3 3 3 3 3 . o o a R.[.[.~.w.[ Y K 5 o o o X o o o o X o X X o o o o X o o o o o o o @ j 7.u.u.9.X.Q Q E l X X + 2 3 3 3 3 3 3 ",
"3 3 3 3 3 3 . o o a R.[.[.~.w.[ Y K 5 o o o X o o o X X o X o o o o o o o o o o o o o @ j 7.u.u.0.X.Q ..E l X o + 2 3 3 3 3 3 3 ",
"3 3 3 3 3 3 . o o a R.[.[.~.w.[ Y K 7 o o o o o o o X o o o o o o o o o o X o o o o o @ j 7.u.u.0.X.Q ..E l X o + 2 3 3 3 3 3 3 ",
"3 3 3 3 3 3 . o o a R.[.[.~.w.[ Y K 7 o o o o o o o X o o X o o o o o o o X o o o o o @ j 7.u.u.0.X.T Q E l X o + 2 3 3 3 3 3 3 ",
"3 3 3 3 3 3 . o o a R.[.[.~.w.[ Y K 7 o o o o X o X X o o o o X X o o X o X o o o o o @ x 7.u.u.9.X.T Q E l X o + 2 3 3 3 3 3 3 ",
"3 3 3 3 3 3 . o o a R.[.[.~.w.[ Y L 5 o o o o o o X X o o X o X o X o o o X o o o o o @ j 7.u.u.0.X.T T E l X o + 2 3 3 3 3 3 3 ",
"3 3 3 3 3 3 . o o a R.[.[.~.w.[ Y K 7 o o X o o o X o o o o o o o o o o o X X X o o o @ j 7.u.u.9.X.T T E l X o + 2 3 3 3 3 3 3 ",
"3 3 3 3 3 3 . o o a R.[.[.~.w.[ Y L 5 o o o o o o o X o o X X o X o o o o X X o o o o @ j 7.u.u.9.X.T T E l X o + 2 3 3 3 3 3 3 ",
"3 3 3 3 3 3 . o o a R.[.[.~.w.E Y L 5 X X o X o o o X o o X o o X o o o o o o o o o o @ j 7.u.u.9.X.T Q E l X o + 2 3 3 3 3 3 3 ",
"3 3 3 3 3 3 . o + a R.[.[.~.w.[ Y L 5 X o o o X o o o o o X X o o o o X X o o o o o o @ j 7.y.u.0.X.T T E l o o + 2 3 3 3 3 3 3 ",
"3 3 3 3 2 3 . o o a R.[.[.~.w.[ Y L 7 X X X o o X o X o o X o o o o o o o o o o o o o @ j 7.u.u.9.X.T T E l X o + 2 3 3 3 3 3 3 ",
"3 3 2 O O 2 . o o a R.[.[.~.w.[ Y L 7 X o o o o o o o o o X X X X X o o o o o o o o o @ j 7.u.u.9.X.T T E l o o + 2 3 3 3 3 3 3 ",
"3 3 1 O O 3 . o o a R.[.[.~.w.[ Y L 5 X o o X X o X o o o o X o X X o X o o X o o o o @ j 7.u.u.9.X.T Q E l X o + 2 3 3 3 3 3 3 ",
"3 3 3 1 2 3 . o o a R.[.[.~.w.' Y L 5 X X X o o X X o o X o o o o o o o o X X o o o o @ j 7.u.u.9.X.T Q E l X X + 2 3 3 3 3 3 3 ",
"3 3 3 3 3 3 . o + a R.[.[.~.w.E Y L 5 X X X o o X o X X X X o o X X o o o o X o o o o @ j 7.u.u.9.X.T T E l o o + 2 3 3 3 3 3 3 ",
"3 3 3 3 3 3 . o + p R.[.[.~.w.E Y L 7 X X X o o X X o X o o X o X X X o o o o X o o o @ j 7.u.u.9.X.T Q E l X o + 2 3 3 3 3 3 3 ",
"3 3 3 3 3 3 . o o p R.[.[.~.w.E U L 5 X X X o X X X X X X X X X X o o o o o o o o o o @ j 7.u.u.9.X.T T E l X o @ 2 3 3 3 3 3 3 ",
"3 3 3 3 3 3 . o o p R.[.[.~.w.E U K 5 X X X X X o X X X X X X o o X o X o o o o o o o @ j 7.y.y.6.X.Y T E l X o + 2 3 3 3 3 3 3 ",
"3 3 3 3 3 3 . o o r B.Z.Z.j.{ P K D 6 X o X X o o o o o X o X X o o o o o o o o o o o @ h | O.O.X.R L L K g o o + 2 3 3 3 3 3 3 ",
"3 3 3 3 3 3   o o = d n b b p w 7 6 & o X X X X X o o X X X X X X X X o o o o o o o o o ; i i i i u 7 7 7 > o o + 2 3 3 3 3 3 3 "
};
