/* XPM */
static char *P_hero[] = {
/* columns rows colors chars-per-pixel */
"64 64 193 2 ",
"   c #170E1D",
".  c #180F1E",
"X  c #100B17",
"o  c #171415",
"O  c #1B1A17",
"+  c #17111B",
"@  c #1A131D",
"#  c #1D1A1B",
"$  c #191617",
"%  c #211E1E",
"&  c #24121D",
"*  c #351A1C",
"=  c #3A181C",
"-  c #22211E",
";  c #3D271D",
":  c #1C1223",
">  c #1F1428",
",  c #201626",
"<  c #231D22",
"1  c #22152A",
"2  c #25192C",
"3  c #291C2F",
"4  c #281E27",
"5  c #251733",
"6  c #261831",
"7  c #2B1C34",
"8  c #2C1C39",
"9  c #251539",
"0  c #301F3C",
"q  c #262322",
"w  c #292624",
"e  c #2B2925",
"r  c #2C232C",
"t  c #2E2A2A",
"y  c #31262D",
"u  c #322B2C",
"i  c #2F2231",
"p  c #312236",
"a  c #332A33",
"s  c #33223C",
"d  c #3D2D35",
"f  c #373232",
"g  c #3A3235",
"h  c #3C3439",
"j  c #4A1C1D",
"k  c #521F1C",
"l  c #4B211D",
"z  c #4A2B1E",
"x  c #5C231B",
"c  c #52231C",
"v  c #4B301D",
"b  c #58341F",
"n  c #58371D",
"m  c #643B1D",
"M  c #732A1B",
"N  c #502920",
"B  c #443023",
"V  c #593420",
"C  c #43373A",
"Z  c #443A3C",
"A  c #483C3C",
"S  c #7B3C21",
"D  c #78491F",
"F  c #2D1B45",
"G  c #321F40",
"H  c #352343",
"J  c #392547",
"K  c #3B2943",
"L  c #392648",
"P  c #3E294C",
"I  c #422C4C",
"U  c #453448",
"Y  c #452E53",
"T  c #473156",
"R  c #4A3254",
"E  c #4E3659",
"W  c #4E345A",
"Q  c #503758",
"!  c #50365B",
"~  c #50375C",
"^  c #51365D",
"/  c #53395E",
"(  c #573D60",
")  c #563A61",
"_  c #5B3D66",
"`  c #5D3F68",
"'  c #4D4342",
"]  c #4F4849",
"[  c #564A4B",
"{  c #5C514B",
"}  c #5E5351",
"|  c #5E4D5B",
" . c #61554F",
".. c #665951",
"X. c #675A53",
"o. c #695F58",
"O. c #6D625C",
"+. c #76685E",
"@. c #5D4167",
"#. c #5B4064",
"$. c #5F4069",
"%. c #63456D",
"&. c #63466D",
"*. c #64466D",
"=. c #64466E",
"-. c #64456D",
";. c #60426A",
":. c #695568",
">. c #685367",
",. c #725C6F",
"<. c #736661",
"1. c #7A6A67",
"2. c #7D7265",
"3. c #82351C",
"4. c #93391B",
"5. c #90231C",
"6. c #B53718",
"7. c #C53315",
"8. c #9B421E",
"9. c #8C561D",
"0. c #99571E",
"q. c #AA421C",
"w. c #BB4516",
"e. c #B95C1E",
"r. c #B5691D",
"t. c #844B20",
"y. c #935420",
"u. c #C84818",
"i. c #D44C1A",
"p. c #D44918",
"a. c #CC541D",
"s. c #DD571B",
"d. c #DD591B",
"f. c #C9691D",
"g. c #DB661B",
"h. c #C6761A",
"j. c #DA7F19",
"k. c #E5691C",
"l. c #EB771A",
"z. c #DE6526",
"x. c #E67D20",
"c. c #857B6E",
"v. c #8A7968",
"b. c #887E72",
"n. c #EE8E1B",
"m. c #E98418",
"M. c #F58E1C",
"N. c #F3841E",
"B. c #EF911C",
"V. c #F5951C",
"C. c #FE941E",
"Z. c #FE9B1B",
"A. c #FB8A21",
"S. c #92816F",
"D. c #978676",
"F. c #8C8272",
"G. c #A18F78",
"H. c #A8957E",
"J. c #B89D7A",
"K. c #D4B07E",
"L. c #9C9386",
"P. c #A29682",
"I. c #AD9D83",
"U. c #A69C8C",
"Y. c #B6A58A",
"T. c #B3A695",
"R. c #BCAEA1",
"E. c #BEB0A1",
"W. c #C7B293",
"Q. c #C9B595",
"!. c #C2B59B",
"~. c #CBBA9A",
"^. c #C8B89C",
"/. c #CABCA3",
"(. c #D9C29C",
"). c #F6D49E",
"_. c #CEC1A4",
"`. c #D4C3A2",
"'. c #DACAAB",
"]. c #D8C8A8",
"[. c #DFD2AE",
"{. c #DCCDB1",
"}. c #E1D1AE",
"|. c #EBDAB5",
" X c #E2D5B9",
".X c #EDDDB9",
"XX c #E5D7B5",
"oX c #F1DFB8",
"OX c #F6E5BE",
"+X c #F7E8BF",
"@X c #F7E8C0",
"#X c #F8E8C0",
"$X c #F6E7C0",
/* pixels */
"e e e e e e e e e e e e e e e e e e e e e e e e e e e e e e e e e e e e e e e e e e e e e e e e e e e e e e e e e e e e e e e e ",
"e e e e e e e e e e e e e e e e e e e e e e e e e e e e e e e e < @ @ @ @ @ @ q e e e e e e e e e e e e e e e e e e e e e e e e ",
"e e e e e e e e e e e e e e e e e e e e e e e e e e e e e e w q a s s s s s s q q e e e e e e e e e e e e e e e e e e e e e e e ",
"e e e e e e e e e e e e e e e e e e e e e e e e e e e e e e w   R =.=.=.=.=.=.7   e e e e e e e e e e e e e e e e e e e e e e e ",
"e e e e e e e e e e e e e e e e e e e e e e e e e e e e w % r I ( =.&.;.) _ &.R I # % e e w - q e e e e e e e e e e e e e e e e ",
"e e e e e e e e e e e e e e e e e e e e e e e e e e e e w , s =.&.&.&.$.T E $.;.=.  @ e w O O O e e e e e e e e e e e e e e e e ",
"e e e e % O - e e e e e e e e e e e e e e e e e e e e # , / @.=.=.&.&.$.T H 1 I _   @ e % O O O w e e e e e e e e e e e e e e e ",
"e e e e O O O w e e e e e e e e e e e e e e e e e e w < 7 @.=.=.&.&.;._ T s . H Q + @ e - O O # w e e e e e e e e e e e e e e e ",
"e e e e - O - e e e e e e e e e e e e e e e e e e w @ U @.&.=.=.=.&.E Y Y s . : > w w e e w - w e e e e e e e e e e e e e e e e ",
"e e e e e w e e e e e e e e e e e e e e e e e e e e . R =.=.=.=.&.&.) W P 8 . # # e e e e e t e e e e e e e e e e e e e e e e e ",
"e e e e e e e e e e e e e e e e e e e e e e e e e e . R =.=.=.=.=.&.&./ 0 2   q e e e e e e e e e e e e e e e e e e e e e e e e ",
"e e e e e e e e e e e e e e e e e e e e e e e t # p R #.=.=.=.=.&.&.&.) H 6   q e e e e e e e e e e e e e e e e e e e % O w e e ",
"e e e e e e e e e e e e e e e e e e e e e e e u   s =.=.=.=.=.=.=.=.&.( J 7 : q e e e e e e e e e e e e e e e e e e w O O w e e ",
"e e e e e e e e e e e e e e e e e e e e e e e u   s =.=.=.=.=.=.=.=.&.( P L J > X e e e e e e e e e e e e e e e e e e w w e e e ",
"e e e e e e e e e e e e e e e e e e e e e e w w : s @.@.@.@.@.@.@.@.@./ L L L 1   e e e e e e e e e e e e e e e e e e e e e e e ",
"e e e e e e e e e e e e e e e e w w e e e e # > J J J J J J J J J J J J J J L 1   e e e e e e e e e e e e e e e e e e e e e e e ",
"e e e e e e e e e e e e e e w % O # e e e e @ 1 ~ ~ ~ Q ~ ~ ~ Q ~ E L L J H s >   % q e e e e e e e e e e e e e e e e e e e e e ",
"e e e e e e e e e e e e e e - O O O w e e e @ 3 &.&.=.=.&.&.&.=.=.;.P J J 7     . . # e e e e e e e e e e e e e e e e e e e e e ",
"e e e e e e e e e e e e e e # o + + # # # # K Q &.=.&.=.=.=.=.&.=.&.) / / E R R R 8 7 # # # q e e e e e e e e e e e e e e e e e ",
"e e e e e e e e e e e e e e - # , , , , , , R &.&.&.=.=.=.=.=.&.&.=.&.&.&.&.&.&.=.L H > : : % w w e e e e e e e e e e e e e e e ",
"e e e e e e e e e e e e e q   K ( ( ( ( ( ( $.&.&.&.&.&.&.=.=.&.&.=.=.&.&.&.&.&.&._ ( / J 9 : @ @ q e e e e e e e e e e e e e e ",
"e e e e e e e e e e e e w q 7 R =.&.@.Q E Q Q Q E E Q Q Q Q Q Q Q Q Q Q Q Q Q Q Q Q Q Q H 9 1 1 1 < w w e e e e e e e e e e e e ",
"e e e e e e e e e e e w # 2 =.=.=.&.R @                                                   : 0 L L 3   w e e e e e e e e e e e e ",
"e e e e e e e e e e e w # : p 0 p p 3 .   . ' ................................r     . .   . 1 1 1 : @ w e e e e e e e e e e e e ",
"e e e e e e e e e e e w # @     .           D.W.Q.Q.Q.W.W.W.W.W.Q.Q.Q.Q.W.W.W.' @     .   . . . . @ @ % q e e e e e e e e e e e ",
"e e e e e e e e e e e e w q             A v.].XXZ A A I.|.|.|.|.F.A A +.}.'.W.Y.I.    .     . . . < O O O e e e e e e e e e e e ",
"e e e e e e e e e e e e e w @ # # # @   ..~.`._.    . P.OXOX.X`.O.. . ' ^.`.(.Q.Q.g 4   @ # @ @ # % O O O w e e e e e e e e e e ",
"e e e e e e e e e e e e e e w w w w %   c.OX] a .   . P.OXOX^.a < . . : a 2.OX`.W.Y.+.. q w w w w % O O # w e e e e e e e e e e ",
"e e e e e e e e e e e e e e e e e e %   c.OXh . .   . P.OXOX!.  . . . . . O.OX`.W.W.v.  q e e e e e w - w e e e e e e e e e e e ",
"e e e e e e e e e e e e e e e e e e <   c.OXh         P.OXOX!.  . . . . . O.OX`.W.W.v.  q e e e e e e t e e e e e e e e e e e e ",
"e e e e e e e e e e e e e e e e e e <   c.OX} d . . . P.OXOX`.[ a . . . : O.OX`.W.W.v.  q e e e e e e e e e e e e e e e e e e e ",
"e e e e e e e e e e e e e e e e e e <   c.OXD.<.r r r U.@XOX'.1.C     . < +.OX`.W.Y.v.. q e e e e e e e e e e e e e e e e e e e ",
"e e e e e e e e e e e e e e e e e e %   c.OX+X#X@X@X#XO.a [.OX+X.XXX|.|.|.}.W.W.Q.X   . q e e e e e e e e e e e e e e e e e e e ",
"e e e e e e e e e e e e e e e e e e q + O.!.'.}.OXOXOXb.} XXOXOXOXOXOXOXoX}.W.I.H.  @ @ q e e e e e e e e e e e e e e e e e e e ",
"e e e e e e e e e e e e e e e e e e e e # . v.P.OXOXOXOXOXOXOXOXOXOXOX|.Q.W.W.'     @ e e e e e e e e e e e e e e e e e e e e e ",
"e e e e e e e e e e e e e e e e e e e e #   C { OX_.O.^.XXc.c.OXOXOXc.o.{ { { r . 7 2 # q e e e e e e e e e e e e e e e e e e e ",
"e e e e e e e e e e e e e e e e e e e e #   . r OXY.. U.].h h OXOXOXZ .   . . .   L 8 . q e e e e e e e e e e e e e e e e e e e ",
"e e e e e e e e e e e e e e e e e e q + > 5 : : Z a   L./.h y Y.W.~.g   . 1 s s s J H s , # w e e e e e e e e e e e e e e e e e ",
"e e e e e e e e e e e e e e e e e e <   1 8 > :   .   b.U.a r S.G.H.u . > 6 J H H H H H 1 @ w e e e e e e e e e e e e e e e e e ",
"e e e e e e e e e e e e e e e e e e <   1 8 8 5       : : @ . : : , @ 1 H H J 1 @ @ @ . . @ w e e e e e e e e e e e e e e e e e ",
"e e e e e e e e e e e e e e q q q q #   1 8 8 7 2 1 > > > 1 1 1 1 1 1 7 J H 8 7 7 0 s s 3 2 q q e e e e e e e e e e e e e e e e ",
"e e e e e e e e e e e e e q             1 8 8 8 ~ I 8 8 8 G H J J J J J J 7   I $.$.$.$.I H : # e e e e e e e e e e e e e e e e ",
"e e e e e e e e e e e w % t <.<.O.4     > 1 1 6 ) E I I I Y Y Y R R R Y J 7 . I $.$.$.` P G : # e e e e e e e e e e e e e e e e ",
"e e e e e e e e e e e w + Z $XOX.Xg           : _ _ _ _ _ _ ` _ _ ` ` ) L 7 . I $.` $.` P H : # e e e e e e e e e e e e e e e e ",
"e e e e e e e e e e e w + C ).(.W.a : 3 1     : _ _ _ _ _ ` ` ` ` ` ` ) L 7 . 1 3 _ ` ` ) W G 8 + - e e e e e e e e e e e e e e ",
"e e e e e e e e e e w q @ g K.J.D.y : 7 2     : _ ) ) _ ` ` ` ` ` ` $._ I 0 > :   _ ` _ _ ~ H G . % e e e e e e e e e e e e e e ",
"e e e e e e e e e e # @ + : u y r @ . : @     : ` _ ) ` ` ` ` $.$.$.$.$._ R H 1   _ ` ` _ ~ F F . % e e e e e e e e e e e e e e ",
"e e e e e e e e w % v m c k m m m x x x =     : ` ` ` ` ` $.$.$.$.$.$.$.$.E J 1   _ / I I J 9 5 . % e e e e e e e e e e e e e e ",
"e e e e e e e e -   0.N.w.6.M.V.M.p.p.s.S . . : ` ` ` ` $.$.$.$.$.$.$.$.$.W J 1   _ I       .   . % e e e e e e e e e e e e e e ",
"e e e e e e e % ; 0.f.g.g.g.C.C.C.l.g.u.q.4.& : ~ ) ` ` $.$.$.$.$.$.$.$.$.W J 1   s U { 1.F.2. .  % e e e e e e e e e e e e e e ",
"e e e e e e e @ V A.k.u.l.A.C.C.Z.Z.m.w.u.s.* @ L R $.$.$.$.$.$.$.$.$.$.$.E J 1 .   h D./..X~.D.  o - e e e e e e e e e e e e e ",
"e e e e e e e @ b A.0.= ; D C.C.V.n ; = 4.s.* @ L R $.$.$.$.$.$.$.$.$.$.$.W J H s   ' OXOX'.] u . o O w e e e e e e e e e e e e ",
"e e e e e e e @ b A.t.. . n C.Z.V.z & . 3.s.* : J R _ $.$.$.$.$.$.$.;.$.$.~ J L L : U '.{.!.a     o - e e e e e e e e e e e e e ",
"e e e e e e e @ V A.k.s.N.C.C.a.5.n.M.s.i.i.* : L J J ) $.$.;.;.;.;.;.;.$.~ J L J L 8       . # t w e e e e e e e e e e e e e e ",
"e e e e w e e @ b A.k.i.f.h.r.8.5.h.j.s.i.p.* : L J J ) $.$._ R ( ;.;._ E Y J L L L s 1 : @ @ # e e e e e e e e e e e e e e e e ",
"e e w # # w e @ b A.d.6.j . .       c i.p.7.* : J J J ) ;.;./ . I ;.;.R > 2 L L L L L L 1 @ w e e e e e e e e e e e e e e e e e ",
"e e w O # e e < B t.e.g.4.M 9.9.9.3.8.z.q.x & . 1 1 1 s s s s . 7 s s 7 : > 6 6 6 6 6 6 > @ w e e e e e e e e e e e e e e e e e ",
"e e e w w e e e w @ y.x.u.u.n.B.n.a.a.z.S                   @ , , : .       . . .       . @ w e e e e e e e e e e e e e e e e e ",
"e e e e e e e e e q ; v l j n n n l l N * $ % q   1 7 8 7 : r L.U.L.r > 7 8 8 >   < % % < q e e e e e e e e e e e e e e e e e e ",
"e e e e e e e e e e # @ @ + + + + + + + @ w w w > 7 P L H > g  X.X Xh 1 L P P 6 > w w e e e e e e e e e e e e e e e e e e e e e ",
"e e e e e e e e e e e w w w w w w w w w e e @ : / ~ _ R H > g  X.X Xh 3 ( ;.;.W Y   @ e e e e e e e e e e e e e e e e e e e e e ",
"e e e e e e e e e e e e e e e e e g h h h h < . I I R J 7 : a R.E.R.a 2 U R R L H   : h h h h h h u e e e e e e e e e e e e e e ",
"e e e e e e e e e e e e e e e e e | ,.,.,.,.i               , >.:.:.2               3 >.:.:.:.:.:.h e e e e e e e e e e e e e e ",
"e e e e e e e e e e e e e e e e e f g g g g t q q q q q q q w f f f w q q q q q q q w f f f f f f t e e e e e e e e e e e e e e "
};
