/* XPM */
static char *enemy1_xpm[] = {
"16 16 4 1",
"  c #000000",
". c #880000",
"+ c #CC0000",
"@ c #FF4444",
"                ",
"       ..       ",
"      .@@.      ",
"     .+@@+.     ",
"     .+@@+.     ",
"     .@@@@.     ",
"     .+@@+.     ",
"     .+@@+.     ",
"      .@@.      ",
"      .@@.      ",
"      .@@.      ",
"      .@@.      ",
"      .@@.      ",
"      .@@.      ",
"     ..@@..     ",
"    ..    ..    "
};

