/* XPM */
static char *enemy2_xpm[] = {
"16 16 4 1",
"  c #000000",
". c #660000",
"+ c #BB0000",
"@ c #FF3333",
"                ",
"       ..       ",
"      .@@.      ",
"     .+@@+.     ",
"     .@@@@.     ",
"     .+@@+.     ",
"     .@@@@.     ",
"     .+@@+.     ",
"      .@@.      ",
"      .@@.      ",
"      .@@.      ",
"      .@@.      ",
"      .@@.      ",
"      .@@.      ",
"     ..@@..     ",
"    ..    ..    "
};

