/* XPM */
static char *enemy3_xpm[] = {
"16 16 4 1",
"  c #000000",
". c #550000",
"+ c #AA0000",
"@ c #EE3333",
"                ",
"       ..       ",
"      .@@.      ",
"     .@@@@.     ",
"     .+@@+.     ",
"     .@@@@.     ",
"     .+@@+.     ",
"     .@@@@.     ",
"      .@@.      ",
"      .@@.      ",
"      .@@.      ",
"      .@@.      ",
"      .@@.      ",
"      .@@.      ",
"     ..@@..     ",
"    ..    ..    "
};

