/* XPM */
static char *back_xpm[] = {
"16 16 4 1",
"  c #000000",
". c #AAAAAA",
"+ c #666666",
"@ c #DDDDDD",
"                ",
"       ++       ",
"      +@@+      ",
"     +@++@+     ",
"     +@++@+     ",
"     +@@@@+     ",
"     +@++@+     ",
"     +@++@+     ",
"      +@@+      ",
"      +@@+      ",
"      +@@+      ",
"      +@@+      ",
"      +@@+      ",
"      +@@+      ",
"     ++@@++     ",
"    ++    ++    "
};

