/* XPM */
static char *collect_xpm[] = {
"16 16 3 1",
"0 c None",
"1 c #FFD700",
"2 c #B8860B",
"0000000000000000",
"0000001111000000",
"0000112222110000",
"0001121111221000",
"0011211111122100",
"0012111111112100",
"0012111111112100",
"0012111111112100",
"0012111111112100",
"0011211111122100",
"0001121111221000",
"0000112222110000",
"0000001111000000",
"0000000000000000",
"0000000000000000",
"0000000000000000"
};

