/* XPM */
static char *exit_xpm[] = {
"16 16 3 1",
"0 c #3A2A1A",
"1 c #8B5A2B",
"2 c #FFD700",
"0000000000000000",
"0111111111111110",
"0111111111111110",
"0111222222222110",
"0111222222222110",
"0111222222222110",
"0111222222222110",
"0111222222222110",
"0111222222222110",
"0111222222222110",
"0111222222222110",
"0111222222222110",
"0111111111111110",
"0111111111111110",
"0000000000000000",
"0000000000000000"
};

