/* XPM */
static char *front_xpm[] = {
"16 16 4 1",
"0 c None",
"1 c #C0C0C0",
"2 c #FFD700",
"3 c #000000",
"0000001110000000",
"0000111111100000",
"0001122222110000",
"0011221112221000",
"0012211111221000",
"0011113331111000",
"0011333333311000",
"0011333333311000",
"0011113331111000",
"0011221112211000",
"0011122222111000",
"0000111111100000",
"0000001110000000",
"0000000000000000",
"0000000000000000",
"0000000000000000"
};

