/* XPM */
static char *wall_xpm[] = {
"16 16 2 1",
"0 c #555555",
"1 c #888888",
"0000000000000000",
"0111111111111110",
"0110000111000110",
"0111111111111110",
"0110000110000110",
"0111111111111110",
"0110000111000110",
"0111111111111110",
"0110000110000110",
"0111111111111110",
"0111000110000110",
"0111111111111110",
"0110000111000110",
"0111111111111110",
"0111111111111110",
"0000000000000000"
};

